<?xml version="1.0" encoding="UTF-8" standalone="no"?>
<!-- Created with Inkscape (http://www.inkscape.org/) -->

<svg
   version="1.1"
   id="svg2"
   width="3733.3333"
   height="2666.6667"
   viewBox="0 0 3733.3333 2666.6667"
   sodipodi:docname="for-developer.svg"
   inkscape:version="1.2.2 (b0a8486541, 2022-12-01)"
   xmlns:inkscape="http://www.inkscape.org/namespaces/inkscape"
   xmlns:sodipodi="http://sodipodi.sourceforge.net/DTD/sodipodi-0.dtd"
   xmlns="http://www.w3.org/2000/svg"
   xmlns:svg="http://www.w3.org/2000/svg">
  <defs
     id="defs6" />
  <sodipodi:namedview
     id="namedview4"
     pagecolor="#ffffff"
     bordercolor="#000000"
     borderopacity="0.25"
     inkscape:showpageshadow="2"
     inkscape:pageopacity="0.0"
     inkscape:pagecheckerboard="0"
     inkscape:deskcolor="#d1d1d1"
     showgrid="false"
     inkscape:zoom="0.17699999"
     inkscape:cx="615.81924"
     inkscape:cy="1494.3504"
     inkscape:window-width="1920"
     inkscape:window-height="1123"
     inkscape:window-x="0"
     inkscape:window-y="0"
     inkscape:window-maximized="1"
     inkscape:current-layer="g10">
    <inkscape:page
       x="0"
       y="0"
       id="page8"
       width="3733.3333"
       height="2666.6667" />
  </sodipodi:namedview>
  <g
     id="g10"
     inkscape:groupmode="layer"
     inkscape:label="Page 1"
     transform="matrix(1.3333333,0,0,-1.3333333,0,2666.6667)">
    <g
       id="g12"
       transform="scale(0.1)">
      <path
         d="M 0,0 H 28000 V 20000 H 0 Z"
         style="fill:#ffffff;fill-opacity:1;fill-rule:nonzero;stroke:none"
         id="path14" />
      <path
         d="m 4214.13,2037.1 c 0,0 -3124.9,3383.9 -2025.83,7328.4 717.86,2576.4 3098.1,1015.5 2971.34,5192.2 -126.75,4176.7 7013.36,4610.8 8992.86,3399 1979.6,-1211.7 2021.5,-1985.9 6109.2,-1504.8 4087.7,481.2 5866.6,-3191.1 3748.7,-6276.2 -1854.6,-2701.8 4186.7,-2430.7 595.4,-8146.1 l -20391.67,7.5"
         style="fill:#ebf3fa;fill-opacity:1;fill-rule:nonzero;stroke:none"
         id="path16" />
      <path
         d="m 14107.9,14383 c 20.4,-50.9 36.9,-105.8 48.4,-164.5 21.8,-111.9 -0.9,-288.6 -51.5,-391 -5.4,-11 -10.9,-21.7 -16.5,-32.4 -348.6,-647 -1262.2,-518.3 -1412.6,211.7 -19.6,95.5 -7.4,234.4 26.7,341 8.3,24.5 17.2,47.6 27.3,67.2 46.5,92.9 104.2,170.7 170,234 375.2,360.4 1002.1,242.4 1208.2,-266 z m -2278.8,-1011.5 356.2,40.2 c 29.7,3 58.5,-10.8 74.8,-35.8 20.6,-32 42.7,-63.4 66.2,-94.1 43.8,-57.1 90.7,-109.9 141.1,-157.5 23.5,-22.4 31.3,-56.3 19.3,-86.2 l -136.6,-348.9 c -14.9,-37 1.5,-79.7 37.9,-97.6 l 306.9,-152 c 34.9,-17.1 76.6,-5.3 97.6,27.1 l 185.6,290.7 c 17.4,28.7 52.1,42 85.5,33.1 141,-37.2 287.8,-51.8 434.5,-43.2 35.4,2 68.4,-21 79,-54.8 l 62.9,-200.2 c 12.3,-37.9 51,-61.4 90.5,-53.8 l 333.3,67.4 c 6.9,1.4 13.3,3.3 19.3,6.4 28.9,13.8 46.6,45.2 42.6,78.1 l -29.7,266.1 -7.3,64.9 c 55.4,31.2 109.8,67 161.6,106.7 69.8,53.6 133.4,112.7 189.7,175.6 21.5,24 55.3,32.6 85.2,20.6 l 280.9,-110.4 c 38.5,-14.8 82,1.8 100,38.8 l 116.2,234.6 33.1,67.3 c 18.3,36.7 6,81.5 -28.5,103.3 l -242.8,155.3 c -28.4,17.7 -42.4,51.4 -34.3,83.2 22.7,95.8 35.3,193.7 37,291.7 0.9,8.5 0.8,16.3 0.8,24.7 -0.2,2.8 0.2,5.5 0.5,8.3 3,31.4 24.9,57.5 55.1,66.9 l 324.9,102.9 c 3.7,0.9 7.3,2.6 10.6,4.1 31.6,15.4 49.6,51 42.8,86.2 l -66.7,332.3 c -8.1,40.1 -45.2,67.4 -86.2,63 l -371.5,-42 c -31.5,-4 -61.7,12.3 -76.7,40.2 -33.6,61.1 -72.3,120.6 -116.4,178 -23.3,30.4 -47.6,59.5 -73,87.4 -20.4,22.8 -26.5,55.1 -15.2,83.5 l 131.2,335.3 c 14.6,36.8 -1.6,79.1 -37.5,97 l -303.8,149.9 c -36.6,18.2 -81.2,6.2 -103.6,-28.8 l -146.9,-230 c -19.7,-30.9 -57.4,-44.1 -91.9,-32.6 -135,46.8 -276.5,71.9 -419.1,75.3 -33.7,0.3 -63.7,22.6 -73.9,55.2 l -92.6,292.8 c -12.4,39.3 -52.5,62.7 -92.9,55 l -331.2,-66.3 c -39.8,-7.9 -66.8,-45.4 -61.9,-85 l 1.5,-15.6 34.6,-309.2 c 3.8,-33.1 -13.2,-64.3 -42.8,-79.7 l -0.3,-0.2 c -71,-36.7 -139.7,-80.1 -205.5,-130.6 -35.1,-26.9 -68.1,-55.2 -100.1,-84.7 -22,-20.8 -53.8,-26.9 -81.9,-16 l -285.1,112 c -39,15.5 -83.4,-1.8 -101.7,-39 l -149.5,-302.5 c -4.2,-8.7 -6.5,-17.8 -7.7,-26.6 -2.9,-28.9 10.5,-58.6 35.9,-75 l 194.4,-123.5 c 23.6,-15.4 37.3,-42.3 36.2,-69.8 -0.4,-7.2 -1.6,-14.6 -4,-21.8 -59.1,-173.5 -82.6,-356.8 -69.9,-539.8 2.6,-31 -14.6,-60 -41.6,-74.3 -3.9,-2 -8,-3.6 -12.4,-5 l -263.1,-83.1 c -38.1,-12 -61.1,-50.8 -53.5,-90.3 l 1.5,-7.7 64.8,-324 c 8.5,-40.8 46.2,-68.1 87.6,-63.5"
         style="fill:#dfebfd;fill-opacity:1;fill-rule:nonzero;stroke:none"
         id="path18" />
      <path
         d="m 23139.4,14619.2 c -342,689.2 -1526,217.4 -1526,217.4 0,0 -581.4,-1440.5 -818.1,-1519.1 -236.8,-78.6 256.5,1328.6 256.5,1328.6 -479.4,-47.9 -1563.7,-862.7 -1563.7,-862.7 0,0 371.3,-1472.1 122.5,-1490 -248.9,-17.8 -262.3,1320.3 -262.3,1320.3 -428.1,-227 -747.5,-842.6 -747.5,-842.6 -359.3,-970.5 905.5,-1381.7 905.5,-1381.7 0,0 117.6,-513 -83.5,-1168.1 v 0 c 0,0 -50.2,-123.6 -86.4,-323.8 l 124.1,24.6 c 3.5,35.3 8.3,69.7 14.5,103.1 l 0.2,0.6 0.2,1.4 c 4.7,20.9 11.5,50.6 20.2,86.9 v 0.1 0.2 c 23.2,81.7 37.9,141.7 46.3,184.5 v 0.4 c 67.4,255.5 170.7,591.7 267.2,677 0,0 -17.5,16.6 -37.8,51.7 12,-16.5 24.6,-33.7 37.8,-51.7 302.9,-413 1380.3,-277.9 1948,-38.9 567.7,239 276.5,354.7 -96,562.3 -372.5,207.6 -1026,3.5 -1244.4,70.6 -218.3,67 48.9,230.5 449.5,278.5 400.6,48.1 676.2,-307.3 1325.6,-241.4 649.4,65.9 896.9,1361.2 896.9,1361.2 -413,-224 -1250.3,-137.9 -1310.8,7.8 -60.5,145.7 1111,362.6 1284.1,444.4 173,81.6 419.3,509.2 77.4,1198.4"
         style="fill:#dfebfd;fill-opacity:1;fill-rule:nonzero;stroke:none"
         id="path20" />
      <path
         d="m 3604.53,9321.8 c -139.2,756.7 1091.38,1088.4 1091.38,1088.4 0,0 1328.63,-804.9 1565.28,-725.9 236.64,79 -1001.57,910 -1001.57,910 412.58,248.9 1768.88,246.3 1768.88,246.3 0,0 584.81,-1401.1 794.74,-1266.3 209.92,134.8 -581.12,1214.1 -581.12,1214.1 478.78,74.8 1103.31,-226.6 1103.31,-226.6 869.17,-561.7 103.05,-1648.8 103.05,-1648.8 0,0 213.15,-481.1 766.71,-885.1 h 0.02 c 0,0 114.23,-68.9 263.22,-207.5 l -114.14,-54.6 c -23.97,26.1 -48.41,50.8 -73.38,73.8 l -0.47,0.4 -1.08,0.9 c -16.26,13.9 -39.52,33.7 -68.15,57.5 l -0.11,0.1 -0.14,0.1 c -67.54,51.6 -115.24,90.8 -147.57,120 l -0.27,0.3 c -207.06,164.3 -491.21,371.4 -619.63,382 0,0 4.13,23.8 -0.62,64 0.2,-20.4 0.4,-41.7 0.62,-64 5.01,-512.2 -938.48,-1049.6 -1536.18,-1198.4 -597.69,-148.9 -433.92,118.2 -260.11,507.6 173.82,389.4 819.29,617.6 953.96,802.2 134.66,184.5 -177.25,155.3 -526.73,-46.3 -349.48,-201.6 -357.24,-651.3 -916.65,-987.6 -559.41,-336.4 -1533.66,552.4 -1533.66,552.4 464.82,68.1 1083.63,638.7 1044.75,791.6 -38.88,152.9 -1106.78,-375.4 -1294.28,-413.7 -187.5,-38.2 -640.87,156.4 -780.06,913.1"
         style="fill:#dfebfd;fill-opacity:1;fill-rule:nonzero;stroke:none"
         id="path22" />
      <path
         d="m 23869.4,4465 c 605.5,474.7 -96.6,1538.3 -96.6,1538.3 0,0 -1528.5,277.2 -1653.5,493.1 -124.9,216 1353.1,18.2 1353.1,18.2 -144.2,459.8 -1161.9,1356.3 -1161.9,1356.3 0,0 -1366.2,-662.1 -1434.2,-422.1 -68,240 1239.6,524.6 1239.6,524.6 -309.1,373.2 -976.6,561.1 -976.6,561.1 -1023.2,155 -1169.4,-1166.9 -1169.4,-1166.9 0,0 -478.4,-219.2 -1160.7,-155.2 l -0.1,0.1 c 0,0 -131.1,24.1 -334.6,18.9 l 49.3,-116.5 c 35.3,3.7 70,6 103.9,6.6 h 0.6 1.5 c 21.4,-0.3 51.8,-1 89.1,-2 h 0.1 l 0.2,-0.1 c 84.8,-6.1 146.5,-8.3 190.1,-7.8 h 0.4 c 263.9,-14.1 614,-47.1 717.1,-124.3 0,0 12.7,20.5 42.9,47.5 -13.6,-15.1 -27.9,-31 -42.9,-47.5 -343,-380.4 7.8,-1407.9 357,-1915.4 349.1,-507.4 403.3,-198.9 531.1,208 127.8,406.8 -204.6,1005.4 -183.2,1232.8 21.3,227.5 235.6,-1 363.9,-383.6 128.2,-382.5 -163.8,-724.5 32.4,-1347 196.3,-622.6 1514.8,-602.2 1514.8,-602.2 -303.1,359 -388.6,1196.3 -258.2,1285.1 130.4,88.8 580.4,-1014.3 695.6,-1167.2 115,-152.9 583.6,-307.4 1189.2,167.2"
         style="fill:#dfebfd;fill-opacity:1;fill-rule:nonzero;stroke:none"
         id="path24" />
      <path
         d="m 18457,13598.3 h -64.7 c 49.7,435.7 212.6,1409.4 713.4,2081.1 32.5,43.5 78.5,63.1 124,63.1 78.1,0 154.8,-57.5 159.3,-150.5 0.1,-2.5 0.2,-4.9 0.3,-7.5 7.3,-229.6 -604.3,-1178.5 -932.3,-1986.2"
         style="fill:#d8e8fd;fill-opacity:1;fill-rule:nonzero;stroke:none"
         id="path26" />
      <path
         d="m 18807.2,13598.3 h -236.6 c 279.6,605.1 785,1501.2 1511.3,2034.8 30.3,22.3 66.1,33.3 101.6,33.3 48.2,0 95.7,-20.4 127.5,-60.5 36,-45.2 55.7,-118.5 27.1,-236.9 -59.9,-247.6 -869.1,-998.3 -1530.9,-1770.7"
         style="fill:#d8e8fd;fill-opacity:1;fill-rule:nonzero;stroke:none"
         id="path28" />
      <path
         d="m 7800.87,11378.6 c -532.15,419.6 -1178.05,809.5 -1250.51,963.9 -0.89,1.9 -1.77,3.8 -2.62,5.7 -41.91,93.2 31.25,188 120.48,188 19.21,0 39.16,-4.4 58.87,-14.1 443.34,-219.4 818.69,-613.6 1073.78,-935.9 v -207.6"
         style="fill:#d8e8fd;fill-opacity:1;fill-rule:nonzero;stroke:none"
         id="path30" />
      <path
         d="m 7800.87,11050.3 c -805,338.3 -1737.98,601.1 -1880.76,767.9 -66.77,78 -79.88,140.6 -70.19,188.3 13.3,65.5 73.07,109.8 138.31,109.8 7.74,0 15.57,-0.6 23.4,-1.9 683.21,-112.5 1343.67,-521.4 1789.24,-856.2 v -207.9"
         style="fill:#d8e8fd;fill-opacity:1;fill-rule:nonzero;stroke:none"
         id="path32" />
      <path
         d="m 21295,13313.1 v -9001 c 0,-157.4 -113.6,-285.2 -253.8,-285.2 H 8054.71 c -140.15,0 -253.84,127.8 -253.84,285.2 v 9001 c 0,157.6 113.69,285.2 253.84,285.2 H 21041.2 c 140.2,0 253.8,-127.6 253.8,-285.2"
         style="fill:#aec3ff;fill-opacity:1;fill-rule:nonzero;stroke:none"
         id="path34" />
      <path
         d="m 20653.1,13827 v -729.9 H 6160.18 v 729.9 c 0,150.6 122.1,272.6 272.63,272.6 H 20380.5 c 150.5,0 272.6,-122 272.6,-272.6"
         style="fill:#f99746;fill-opacity:1;fill-rule:nonzero;stroke:none"
         id="path36" />
      <path
         d="m 6603.52,13598.3 c 0,70.1 56.82,127 126.92,127 70.1,0 126.92,-56.9 126.92,-127 0,-70.1 -56.82,-126.9 -126.92,-126.9 -70.1,0 -126.92,56.8 -126.92,126.9"
         style="fill:#dfebfd;fill-opacity:1;fill-rule:nonzero;stroke:none"
         id="path38" />
      <path
         d="m 7103.64,13598.3 c 0,70.1 56.82,127 126.92,127 70.1,0 126.92,-56.9 126.92,-127 0,-70.1 -56.82,-126.9 -126.92,-126.9 -70.1,0 -126.92,56.8 -126.92,126.9"
         style="fill:#dfebfd;fill-opacity:1;fill-rule:nonzero;stroke:none"
         id="path40" />
      <path
         d="m 7616.39,13598.3 c 0,70.1 56.82,127 126.92,127 70.1,0 126.92,-56.9 126.92,-127 0,-70.1 -56.82,-126.9 -126.92,-126.9 -70.1,0 -126.92,56.8 -126.92,126.9"
         style="fill:#dfebfd;fill-opacity:1;fill-rule:nonzero;stroke:none"
         id="path42" />
      <path
         d="m 16659.2,15378.5 c 9.9,-24.8 17.9,-51.6 23.5,-80.1 10.6,-54.6 -0.4,-140.6 -25.1,-190.5 -2.6,-5.3 -5.3,-10.5 -8,-15.7 -169.7,-315.1 -614.7,-252.5 -688,103 -9.5,46.5 -3.5,114.2 13.1,166.1 4,12 8.3,23.2 13.3,32.8 22.6,45.2 50.7,83.1 82.8,113.9 182.7,175.5 488,118 588.4,-129.5 z m -1109.9,-492.6 173.5,19.5 c 14.5,1.5 28.5,-5.2 36.4,-17.4 10.1,-15.6 20.8,-30.9 32.3,-45.8 21.4,-27.8 44.2,-53.5 68.7,-76.7 11.5,-10.9 15.3,-27.4 9.4,-42 l -66.5,-169.9 c -7.3,-18.1 0.7,-38.8 18.5,-47.5 l 149.4,-74.1 c 17,-8.3 37.3,-2.6 47.5,13.2 l 90.4,141.6 c 8.5,14 25.4,20.4 41.7,16.1 68.6,-18.1 140.1,-25.2 211.6,-21 17.2,0.9 33.3,-10.3 38.4,-26.7 l 30.7,-97.5 c 6,-18.5 24.8,-29.9 44.1,-26.2 l 162.3,32.8 c 3.3,0.7 6.5,1.6 9.4,3.1 14,6.8 22.7,22 20.7,38.1 l -14.4,129.6 -3.6,31.5 c 27,15.2 53.5,32.7 78.7,52 34,26.1 65,54.9 92.4,85.6 10.5,11.6 26.9,15.8 41.5,10 l 136.8,-53.8 c 18.7,-7.2 39.9,0.9 48.7,18.9 l 56.6,114.2 16.1,32.8 c 8.9,17.9 2.9,39.7 -13.9,50.4 l -118.3,75.6 c -13.8,8.6 -20.6,25 -16.6,40.5 11,46.6 17.2,94.3 18,142 0.4,4.2 0.4,8 0.4,12.1 -0.1,1.3 0,2.7 0.2,4 1.5,15.3 12.1,28 26.9,32.6 l 158.2,50.1 c 1.8,0.4 3.5,1.3 5.1,2 15.4,7.5 24.2,24.8 20.9,42 l -32.5,161.8 c -3.9,19.6 -22,32.8 -42,30.7 l -180.9,-20.5 c -15.4,-1.9 -30.1,6 -37.4,19.6 -16.3,29.8 -35.2,58.7 -56.6,86.7 -11.4,14.8 -23.2,29 -35.6,42.6 -9.9,11.1 -12.9,26.8 -7.4,40.6 l 63.9,163.3 c 7.1,18 -0.8,38.6 -18.2,47.3 l -148,73 c -17.9,8.8 -39.6,3 -50.5,-14 l -71.5,-112.1 c -9.6,-15 -28,-21.4 -44.8,-15.8 -65.7,22.8 -134.6,35 -204.1,36.6 -16.4,0.2 -31,11.1 -36,26.9 l -45,142.6 c -6.1,19.2 -25.6,30.6 -45.3,26.8 l -161.3,-32.3 c -19.4,-3.8 -32.5,-22.1 -30.2,-41.4 l 0.8,-7.6 16.9,-150.5 c 1.8,-16.2 -6.5,-31.4 -20.9,-38.9 l -0.2,-0.1 c -34.5,-17.8 -68,-39 -100,-63.6 -17.1,-13.1 -33.2,-26.8 -48.8,-41.2 -10.7,-10.2 -26.2,-13.2 -39.9,-7.8 l -138.8,54.5 c -19,7.6 -40.6,-0.9 -49.5,-19 l -72.8,-147.3 c -2.1,-4.2 -3.2,-8.7 -3.8,-12.9 -1.4,-14.1 5.1,-28.6 17.5,-36.6 l 94.6,-60.1 c 11.5,-7.5 18.2,-20.6 17.7,-34 -0.2,-3.5 -0.8,-7.1 -1.9,-10.6 -28.8,-84.5 -40.3,-173.8 -34.1,-262.9 1.3,-15.1 -7.1,-29.2 -20.3,-36.2 -1.9,-0.9 -3.9,-1.8 -6,-2.4 l -128.1,-40.5 c -18.6,-5.8 -29.8,-24.7 -26.1,-44 l 0.8,-3.7 31.5,-157.8 c 4.2,-19.9 22.5,-33.2 42.6,-30.9"
         style="fill:#dfebfd;fill-opacity:1;fill-rule:nonzero;stroke:none"
         id="path44" />
      <path
         d="m 7514.34,6742 c 0,0 19.32,210.6 -216.03,210.6 0,0 71.31,-19.3 108.2,-58 0,0 -150.11,88.1 -313.46,-47.3 -163.36,-135.4 -61.86,-475 -111.54,-539.5 -49.67,-64.5 -243.12,-77.4 -219.48,-285.9 23.64,-208.5 613.96,-469.6 576.05,-642.1 0,0 231.34,340 65.92,495.2 0,0 80.63,-75.9 88.84,-166.2 0,0 21.88,176.3 -90.28,232.6 -99.25,49.9 -180.55,232.4 -171.95,265 8.6,32.6 283.73,535.6 283.73,535.6"
         style="fill:#2c3a64;fill-opacity:1;fill-rule:nonzero;stroke:none"
         id="path46" />
      <path
         d="m 7282.64,5730.6 c 0,0 175.82,-727.4 348.42,-872.8 103.75,-87.4 412.22,-288 412.22,-288 l -128.31,-46.5 c 0,0 -427.85,144.4 -523.64,257.1 -95.79,112.6 -358.05,676.9 -358.05,676.9 l 249.36,273.3"
         style="fill:#ffb27d;fill-opacity:1;fill-rule:nonzero;stroke:none"
         id="path48" />
      <path
         d="m 5630.12,4452.7 c 1.55,-2.8 3.19,-5.7 4.84,-8.6 38.47,-66.8 126.74,-230.7 223.96,-410 45.98,-85.1 94.13,-173.7 139.81,-257 78.7,-143.8 150.29,-271.9 192.07,-339.6 42.48,-68.8 73.76,-117.2 86.41,-136.5 l 0.1,-0.1 c 3.81,-6 4.63,-13 4.12,-20 -4.43,-60.7 -3.19,-120.9 2.77,-180.3 58.64,-583.4 452.04,-896 452.04,-896 l 116.97,-17.3 c 0,0 -165.53,613.2 -214.29,959.9 -8.23,58.7 -11.83,106.4 -8.95,137.4 8.64,90.4 -7.41,223 -37.76,375.2 -54.01,270.6 -153.07,602.7 -239.18,868.5 -5.45,17 -169.95,612 -169.95,612 -138.06,-120.7 -641.63,-170.5 -641.63,-170.5 0,0 -85.39,-207.6 88.67,-517.1"
         style="fill:#2f539b;fill-opacity:1;fill-rule:nonzero;stroke:none"
         id="path50" />
      <path
         d="m 7098.7,2039.3 h -488.18 c 0,0 -11.7,74.4 13.8,130.8 24.43,54.2 59.25,55.9 4.44,140.8 31.03,-31.9 130.75,-45.1 201.32,-35.7 8.65,-14 55.75,-108 84.64,-128.8 31.9,-22.9 174.16,-14.7 183.98,-107.1"
         style="fill:#234375;fill-opacity:1;fill-rule:nonzero;stroke:none"
         id="path52" />
      <path
         d="m 5630.12,4452.7 c 1.55,-2.8 3.19,-5.7 4.84,-8.6 38.47,-66.8 246.55,-451.2 343.77,-630.5 -112.65,463.5 -34.3,926.9 -34.3,926.9 l -314.31,-287.8"
         style="fill:#233862;fill-opacity:1;fill-rule:nonzero;stroke:none"
         id="path54" />
      <path
         d="m 7447.75,6771.6 c 3.2,12.8 -278.82,-127.5 -293.12,-143.3 -132.26,-146.7 -94.55,-338.2 -18.87,-340 48.54,-1.2 39.13,-81.9 39.13,-81.9 l 540.73,228.7 c 0,0 -65.11,379.7 -267.87,336.5"
         style="fill:#2c3a64;fill-opacity:1;fill-rule:nonzero;stroke:none"
         id="path56" />
      <path
         d="m 7266.04,5839.9 c 0,0 82.29,-164.4 72.02,-297.8 0,0 -99.22,-156.6 -356.55,-196.3 0,0 221.24,494.2 284.53,494.1"
         style="fill:#f99746;fill-opacity:1;fill-rule:nonzero;stroke:none"
         id="path58" />
      <path
         d="m 6010.69,4933.5 1.66,91.3 c -181.92,-22.9 -627.25,217.4 -627.25,217.4 0,0 -190.31,-126.6 -216.36,-488.1 -12.72,-176.4 -93.17,-922.6 -102.07,-1145.4 -3.24,-80.8 -4.32,-138.4 -4.69,-161.5 l 0.03,-0.2 c -0.11,-7 -3.41,-13.2 -7.73,-18.8 -37.64,-47.8 -70.3,-98.5 -98.58,-151.1 -277.58,-516.4 -132.42,-1218.2 -132.42,-1218.2 l 64.46,16.4 c 0,0 234.72,727.5 388.11,1042.2 26.04,53.3 49.69,94.8 69.48,118.9 57.68,70 118.5,189 178.45,332.2 113.32,270.7 486.91,1364.9 486.91,1364.9"
         style="fill:#2f539b;fill-opacity:1;fill-rule:nonzero;stroke:none"
         id="path60" />
      <path
         d="m 5211.49,2039.3 h -488.18 c 0,0 -11.7,74.4 13.79,130.8 24.44,54.2 62.71,78.8 53.54,144.3 31.03,-31.9 81.59,-67.7 152.16,-58.2 8.65,-14 55.82,-89 84.7,-109.8 31.91,-22.9 174.17,-14.7 183.99,-107.1"
         style="fill:#234375;fill-opacity:1;fill-rule:nonzero;stroke:none"
         id="path62" />
      <path
         d="m 6948.55,5241 c -65.57,-11.2 10.71,-63.3 -79.48,-73.1 -128.36,-14.1 -260.9,-23.6 -330.32,-51.3 -25.32,-10.1 -42.26,-22.6 -47.55,-38.5 -30.09,-90.5 -220.68,-246 -220.68,-246 -850.07,38.7 -904.82,417.5 -904.82,417.5 551.71,535.8 1021.06,827.9 1408.96,864.1 94.41,8.8 221.66,-3.1 281.37,-29.6 135.67,-60.4 210.01,-244.2 210.01,-244.2 0,0 -68.33,-556.4 -317.49,-598.9"
         style="fill:#f99746;fill-opacity:1;fill-rule:nonzero;stroke:none"
         id="path64" />
      <path
         d="m 6869.07,5167.9 c -128.36,-14.1 -260.9,-23.6 -330.32,-51.3 -28.38,423.9 171.69,742.8 171.69,742.8 0,0 130.52,-531.1 158.63,-691.5"
         style="fill:#ed7d2b;fill-opacity:1;fill-rule:nonzero;stroke:none"
         id="path66" />
      <path
         d="m 7048.77,6049.1 c 24.26,-76 105.15,-292.6 217.27,-209.2 -3.8,16.1 19.76,63.1 47.53,110.9 35.5,61 77.78,123.3 77.78,123.3 l -182.71,160.1 -10.9,9.5 c -47.78,-83.4 -94.77,-123.6 -135.91,-154.3 -12.51,-9.3 -17.8,-25.4 -13.06,-40.3"
         style="fill:#ffb27d;fill-opacity:1;fill-rule:nonzero;stroke:none"
         id="path68" />
      <path
         d="m 7391.33,6074 c 0,0 -42.23,-62.2 -77.74,-123.2 -113.56,70 -113.68,210.5 -104.93,283.4 L 7391.33,6074"
         style="fill:#ed985f;fill-opacity:1;fill-rule:nonzero;stroke:none"
         id="path70" />
      <path
         d="m 7396.4,5993.8 c 0,0 -275.74,153.5 -177.55,323.7 98.19,170.3 128.73,304.7 308.94,213.9 180.2,-90.7 176.63,-175.2 157.68,-240 -18.95,-64.8 -214.82,-333.1 -289.07,-297.6"
         style="fill:#ffb27d;fill-opacity:1;fill-rule:nonzero;stroke:none"
         id="path72" />
      <path
         d="m 7732.05,6390.7 c -12.63,75.5 -51.03,82.8 -77.8,77.7 -101.83,168.4 -268.2,102.7 -268.2,102.7 -88.85,-111.5 -217.32,-130.5 -217.32,-130.5 0,0 32,-59.6 163.83,-96.4 40.27,-11.3 85.98,-4.5 130.06,10.4 -91.47,-51 -187.12,-70.6 -187.12,-70.6 173.73,-15.9 339.03,143 356.17,160 8.02,-24.7 22.08,-76.2 13.66,-113.9 -11.43,-51.2 -56.88,-143.9 -29.13,-155.9 0,0 134.79,103.1 115.85,216.5"
         style="fill:#2c3a64;fill-opacity:1;fill-rule:nonzero;stroke:none"
         id="path74" />
      <path
         d="m 10216.2,2662.1 -2057.39,1003.1 263.07,539.6 2057.42,-1003.1 -263.1,-539.6"
         style="fill:#2b478b;fill-opacity:1;fill-rule:nonzero;stroke:none"
         id="path76" />
      <path
         d="m 7515.3,3552.4 c -188.85,92 -323.05,262.6 -368.19,468 -18.33,83.4 34.42,165.9 117.8,184.2 83.39,18.3 165.84,-34.4 184.16,-117.8 24.74,-112.6 98.26,-206.1 201.71,-256.5 185.57,-90.5 410.15,-13.1 500.62,172.4 90.47,185.6 13.1,410.2 -172.47,500.6 -84.29,41.1 -180.18,49.1 -269.99,22.6 -81.88,-24.2 -167.86,22.6 -192.05,104.5 -24.18,81.8 22.59,167.8 104.47,192 164.06,48.5 339.17,33.9 493.04,-41.2 338.81,-165.1 480.07,-575.2 314.9,-914 -165.18,-338.8 -575.2,-480 -914,-314.8"
         style="fill:#2b478b;fill-opacity:1;fill-rule:nonzero;stroke:none"
         id="path78" />
      <path
         d="m 10425.9,2133.4 c -338.8,165.2 -480.09,575.2 -314.9,914 165.2,338.8 575.2,480.1 914,314.9 153.9,-75 273.2,-204 336.1,-363.1 31.4,-79.4 -7.5,-169.2 -86.9,-200.6 -79.4,-31.4 -169.2,7.6 -200.6,87 -34.4,87.1 -99.8,157.7 -184.1,198.8 -185.6,90.4 -410.1,13.1 -500.6,-172.5 -90.5,-185.6 -13.1,-410.1 172.5,-500.6 103.4,-50.5 222.3,-50.8 326.3,-0.9 77,36.9 169.3,4.4 206.2,-72.5 36.9,-77 4.5,-169.4 -72.5,-206.3 -189.6,-90.9 -406.7,-90.3 -595.5,1.8"
         style="fill:#2b478b;fill-opacity:1;fill-rule:nonzero;stroke:none"
         id="path80" />
      <path
         d="m 9738.82,3140.4 -1083.87,528.4 c -31.09,15.2 -44.12,53 -28.97,84.1 l 27.56,56.5 c 15.15,31.1 52.98,44.1 84.07,29 L 9821.48,3310 c 31.09,-15.2 44.12,-53 28.96,-84.1 l -27.54,-56.5 c -15.16,-31.1 -53,-44.2 -84.08,-29"
         style="fill:#233862;fill-opacity:1;fill-rule:nonzero;stroke:none"
         id="path82" />
      <path
         d="m 7238.53,4100.5 c 0,0 5.96,-51.4 27.67,-78 21.72,-26.5 84.9,-90.7 86.01,-128.3 0,0 -3.19,-16.7 -16.74,-13.6 -13.55,3 -60.6,49.6 -84.74,46.3 0,0 12.88,-75.3 25.66,-96.5 12.77,-21.2 36.26,-101.2 28.6,-119.5 -7.67,-18.3 -135.51,88.3 -174.23,140.3 -38.72,52.1 -0.61,263.4 -0.61,263.4 l 108.38,-14.1"
         style="fill:#ffb27d;fill-opacity:1;fill-rule:nonzero;stroke:none"
         id="path84" />
      <path
         d="m 6979.82,5931.2 c 0,0 -322.81,17.6 -380.17,-185 -57.36,-202.7 107.62,-1011.7 143.17,-1095.2 64.72,-152 379.83,-585.8 379.83,-585.8 l 115.88,35.3 c 0,0 -210.11,662.7 -257.02,728.3 -73.63,103 94.94,1014.2 -1.69,1102.4"
         style="fill:#ffb27d;fill-opacity:1;fill-rule:nonzero;stroke:none"
         id="path86" />
      <path
         d="m 6535.99,5475.1 c 0.84,-4.7 305.48,-56 496.02,40.7 0,0 159.18,498.7 -68.3,474.8 -227.47,-23.9 -362.17,-95.5 -367.9,-204.4 -5.74,-108.9 -59.82,-311.1 -59.82,-311.1"
         style="fill:#f99746;fill-opacity:1;fill-rule:nonzero;stroke:none"
         id="path88" />
      <path
         d="m 7884.71,4894.1 c -15.31,-0.7 -43.41,-5.7 -53.5,-13.5 -17.6,-13.6 -37.39,-37.2 2.05,-56.8 59.17,-29.5 177.47,-16.4 172.85,1.3 -14.55,56 -35.9,73 -121.4,69"
         style="fill:#ffb27d;fill-opacity:1;fill-rule:nonzero;stroke:none"
         id="path90" />
      <path
         d="m 9585.56,12832.5 c -15.57,-17.8 -17.55,-37.7 -9.85,-59 l 0.15,-0.3 c 14.25,-39.4 61.32,-83.4 115.99,-127.3 6.98,-5.6 13.19,-10.7 18.61,-15.5 1.42,-1.2 2.84,-2.5 4.18,-3.7 1.1,-1 2.16,-2 3.21,-2.9 50.98,-47 31.8,-57.8 123.39,-153.1 104.43,-108.7 176.36,-110.7 196.76,-100.8 17.3,8.5 -17.8,66.1 -56.78,130.9 -1.89,3.1 -3.74,6.3 -5.68,9.4 -5.19,8.6 -10.34,17.4 -15.5,26 -45.65,78 -33.93,114.6 -23.1,230.6 8.79,94.3 146.66,526.7 146.66,526.7 l -200.12,34.4 c 0,0 -60.28,-344.3 -126.68,-397.3 -35.51,-28.3 -75.26,-28.6 -109.38,-49.6 -2.42,-1.4 -4.78,-2.9 -7.1,-4.5 -19.4,-12.8 -39.16,-26.1 -54.76,-44"
         style="fill:#ffb27d;fill-opacity:1;fill-rule:nonzero;stroke:none"
         id="path92" />
      <path
         d="m 9585.56,12832.5 c -15.57,-17.8 -17.55,-37.7 -9.85,-59 l 0.15,-0.3 c 17.45,-39.4 63.33,-83.1 116.18,-126.9 6.9,-5.7 12.99,-11 18.42,-15.9 1.42,-1.2 2.84,-2.5 4.18,-3.7 1.1,-1 2.16,-2 3.21,-2.9 50.98,-47 31.8,-57.8 123.39,-153.1 104.43,-108.7 176.36,-110.7 196.76,-100.8 17.3,8.5 -17.8,66.1 -56.78,130.9 -20.34,7.4 -114.77,45.8 -186.16,137.1 -62.89,80.3 -104.83,183.4 -147.64,243.1 -2.42,-1.4 -4.78,-2.9 -7.1,-4.5 -19.4,-12.8 -39.16,-26.1 -54.76,-44"
         style="fill:#233862;fill-opacity:1;fill-rule:nonzero;stroke:none"
         id="path94" />
      <path
         d="m 11199.3,12957.5 c 12.4,-61.8 100.4,-51.5 198.8,-27.4 98.4,24 75,-4.5 215,10.9 140,15.5 182.5,67.8 186.7,88.6 3.8,18.5 -65.3,25 -139.6,33.5 -9.3,1.1 -18.7,2.2 -28,3.4 -83.8,10.5 -145.2,64.5 -221.3,108.9 -72.1,42.1 -179.6,213.5 -179.6,213.5 l -192.1,-15.3 c 0,0 100.8,-153 139.8,-219.5 22.9,-39.2 21.7,-90.9 18.8,-130.9 -1.5,-21.7 -2.9,-43.9 1.5,-65.7"
         style="fill:#ffb27d;fill-opacity:1;fill-rule:nonzero;stroke:none"
         id="path96" />
      <path
         d="m 11398.1,12930.1 c 98.4,24 75,-4.5 215,10.9 140,15.5 182.5,67.8 186.7,88.6 3.8,18.5 -65.3,25 -139.6,33.5 l -0.6,-1.4 c 0,0 -84,-59.6 -200.6,-62.3 -95,-2.3 -195.6,24.9 -261.2,23.8 -1.5,-21.7 -2.9,-43.9 1.5,-65.7 12.4,-61.8 100.4,-51.5 198.8,-27.4"
         style="fill:#233862;fill-opacity:1;fill-rule:nonzero;stroke:none"
         id="path98" />
      <path
         d="m 10463.4,14185.3 -179.5,-483 -234.3,-630.7 c 0,0 -63.62,-6.1 -124.52,11.4 -56.07,16.2 -120.41,58.6 -120.41,58.6 0,0 65.08,677.2 186.46,1065.9 31.07,99.8 65.97,180.5 104.47,225.9 188.2,222.4 367.8,-248.1 367.8,-248.1"
         style="fill:#2c3a64;fill-opacity:1;fill-rule:nonzero;stroke:none"
         id="path100" />
      <path
         d="m 10280.9,14952.4 c -117.6,38 -452.98,-10.7 -789.91,-76.7 l -70.55,116.4 -727.76,56.8 c 0,0 -240.15,-532.5 -108.67,-871.9 19.32,-49.9 57.72,-81.8 123.17,-82.9 h 10.63 c 0,0 433.15,0.3 573.8,0.3 361.92,0 765.99,248.7 818.19,259.2 85.6,17.1 119.8,-154 205.4,-333.7 85.5,-179.6 804.1,-795.6 804.1,-795.6 0,0 110.5,-1.1 156.1,16.1 49.1,18.4 67,42.3 67,42.3 0,0 -796.3,1584.2 -1061.5,1669.7"
         style="fill:#2f539b;fill-opacity:1;fill-rule:nonzero;stroke:none"
         id="path102" />
      <path
         d="m 9179.31,17207.6 c -101.98,26.2 -241.56,0.1 -264.7,-2.2 -276.92,-27.3 -369.95,-336.2 -328.05,-575.8 38.68,-221.2 -73.5,-282.4 -203.51,-457.1 -260.67,-350.2 -90.3,-645.6 115.4,-721.7 123.42,-45.7 294.76,69.5 294.76,69.5 3.1,-1.2 538.4,350.8 757.86,549.1 365.43,143 -111.89,1071.3 -371.76,1138.2"
         style="fill:#2b478b;fill-opacity:1;fill-rule:nonzero;stroke:none"
         id="path104" />
      <path
         d="m 9220.21,16194.5 c 7.28,-25.7 -113.84,-72.8 -206.31,-55.4 -86.98,16.2 -184.49,118 -164.38,127.6 33.29,15.8 55.69,55.1 37.48,267.8 l 16.55,-1.8 278.31,-31.8 c 0,0 0.84,-86.7 7.31,-167.9 5.4,-68.2 19.18,-96.7 31.04,-138.5"
         style="fill:#ffb27d;fill-opacity:1;fill-rule:nonzero;stroke:none"
         id="path106" />
      <path
         d="m 9181.86,16500.9 c 0,0 0.84,-86.7 7.31,-167.9 -153.6,-8.3 -246.07,124.9 -285.62,199.7 l 278.31,-31.8"
         style="fill:#ed975d;fill-opacity:1;fill-rule:nonzero;stroke:none"
         id="path108" />
      <path
         d="m 9239.34,16428.2 c 0,0 -362.09,-35.7 -380.86,190.1 -18.77,225.9 -78.14,373.3 152.25,405.7 230.39,32.3 282.53,-50.1 307.13,-124 24.6,-73.8 15.19,-456.7 -78.52,-471.8"
         style="fill:#ffb27d;fill-opacity:1;fill-rule:nonzero;stroke:none"
         id="path110" />
      <path
         d="m 9200.55,17059.6 c 0,0 -45.6,-275.8 -251.82,-341.3 -150.44,-47.8 -218.58,-16.3 -218.58,-16.3 0,0 72.43,96.1 98.16,229.6 7.58,39.3 35.57,71.7 73.64,84.2 106.9,35.2 236.44,131.3 298.6,43.8"
         style="fill:#2b478b;fill-opacity:1;fill-rule:nonzero;stroke:none"
         id="path112" />
      <path
         d="m 9132.31,17000.8 c 0,0 68.24,-15.2 128.71,-103.3 33.05,-48.1 71.32,-169.4 64.79,-223.1 0,0 63.38,255.4 -29.03,350.3 -97.99,100.8 -164.47,-23.9 -164.47,-23.9"
         style="fill:#2b478b;fill-opacity:1;fill-rule:nonzero;stroke:none"
         id="path114" />
      <path
         d="m 8568.2,15452.6 c 6.45,-27.4 11.98,-52.7 16.47,-75.9 7.38,-37.6 12.45,-70 16.02,-98.5 11.06,-89.1 7.72,-141.9 15.21,-199.6 4.14,-32.3 11.75,-66.1 27.07,-108.7 14.98,-41.3 408.46,-78.2 632.33,-63.3 71.09,4.6 125.25,14.6 144.49,31.2 79.85,69.4 71.89,-83.2 82.84,646.7 5.3,356.1 -302.1,673.1 -302.1,673.1 0,0 -24.55,-152 -329.42,29 -10.83,6.3 -130.89,-171.5 -246.46,-390.4 -127.31,-241.8 -92.4,-293 -56.45,-443.6"
         style="fill:#f99746;fill-opacity:1;fill-rule:nonzero;stroke:none"
         id="path116" />
      <path
         d="m 10283.9,13702.3 -234.3,-630.7 c 0,0 -63.62,-6.1 -124.52,11.4 -56.07,16.2 -120.41,58.6 -120.41,58.6 0,0 65.08,677.2 186.46,1065.9 l 292.77,-505.2"
         style="fill:#2b478b;fill-opacity:1;fill-rule:nonzero;stroke:none"
         id="path118" />
      <path
         d="m 9200.55,16257.7 c 0,0 313.68,-53.2 350.52,-188.3 36.83,-135 291.32,-890.4 291.32,-890.4 0,0 -197.19,-67.2 -270.86,6.4 -73.67,73.7 -256.34,683.5 -256.34,683.5 l -114.64,388.8"
         style="fill:#f99746;fill-opacity:1;fill-rule:nonzero;stroke:none"
         id="path120" />
      <path
         d="m 9155.77,16561.4 c 0,0 15.17,-37.2 55.27,-37.2 40.09,0 50.93,6 58.51,14.5 7.59,8.5 15.12,24.9 15.12,24.9 0,0 -66.44,13.1 -128.9,-2.2"
         style="fill:#ffffff;fill-opacity:1;fill-rule:nonzero;stroke:none"
         id="path122" />
      <path
         d="m 8600.69,15278.2 c 11.06,-89.1 7.72,-141.9 15.21,-199.6 284.82,-0.9 665.62,219.9 665.62,219.9 l -680.83,-20.3"
         style="fill:#ed7d2b;fill-opacity:1;fill-rule:nonzero;stroke:none"
         id="path124" />
      <path
         d="m 9281.52,15485.4 c 0,0 -443.71,13.2 -518.5,265.4 -82.17,277.1 -174.2,-114 -174.2,-114 l 48.97,-249.5 h 486.8 l 156.93,98.1"
         style="fill:#ed7d2b;fill-opacity:1;fill-rule:nonzero;stroke:none"
         id="path126" />
      <path
         d="m 10055,16169.7 -23.9,59.4 c -25.7,63.7 -87.54,105.3 -156.2,105.3 h -442.33 v -280.6 -1198.3 h 1829.73 v 1198.3 h -1035.4 c -75.6,0 -143.6,45.8 -171.9,115.9"
         style="fill:#739af0;fill-opacity:1;fill-rule:nonzero;stroke:none"
         id="path128" />
      <path
         d="m 9708.57,15435.1 v 106.6 l 373.93,163.8 v -108.9 l -261.14,-107.4 261.14,-107.4 v -110.5 l -373.93,163.8"
         style="fill:#ffffff;fill-opacity:1;fill-rule:nonzero;stroke:none"
         id="path130" />
      <path
         d="m 10471.1,15832.9 h 99.6 l -342.2,-715.3 h -99.7 l 342.3,715.3"
         style="fill:#ffffff;fill-opacity:1;fill-rule:nonzero;stroke:none"
         id="path132" />
      <path
         d="m 10986.3,15541.7 v -106.6 l -373.9,-163.8 v 108.9 l 261.2,107.4 -261.2,107.4 v 110.5 l 373.9,-163.8"
         style="fill:#ffffff;fill-opacity:1;fill-rule:nonzero;stroke:none"
         id="path134" />
      <path
         d="m 9281.46,15426.9 32.11,50.4 c 0,0 25.41,8.2 61.05,33.3 42.38,29.7 36.79,74.3 57.95,69.6 l 0.27,-98 -2.3,-0.3 c 90.93,-24.3 197.26,2.1 199.4,-20.5 5.85,-62.3 -42.32,-90.4 -82.68,-109.9 -30.89,-14.9 -65.99,-37.3 -121.8,-19.9 -40.79,12.7 -104.99,25.6 -104.99,25.6 l -39.01,69.7"
         style="fill:#ffb27d;fill-opacity:1;fill-rule:nonzero;stroke:none"
         id="path136" />
      <path
         d="m 8871.08,16286.5 c 0,0 -288.02,-18.8 -360.03,-131.2 -72.02,-112.3 -161.31,-682.6 -123.86,-878.5 37.44,-195.9 959.82,37.4 959.82,37.4 l -29.42,170 c 0,0 -532.33,-3.1 -562.66,66.2 -40.33,92.2 116.15,736.1 116.15,736.1"
         style="fill:#f99746;fill-opacity:1;fill-rule:nonzero;stroke:none"
         id="path138" />
      <path
         d="m 10261.5,16054.4 c -2.5,-7.5 43.3,-82.9 108.7,-69.8 40.7,8.2 93.8,96 47.2,115.3 -77.8,32.3 -149.3,-25.6 -155.9,-45.5"
         style="fill:#ffb27d;fill-opacity:1;fill-rule:nonzero;stroke:none"
         id="path140" />
      <path
         d="m 13077.7,12092.8 -9.7,5.1 1069.3,2004.3 9.6,-5.2 -1069.2,-2004.2"
         style="fill:#2a4e96;fill-opacity:1;fill-rule:nonzero;stroke:none"
         id="path142" />
      <path
         d="m 18054.9,12798.5 -1202.5,1297.4 8.1,7.4 1202.5,-1297.3 -8.1,-7.5"
         style="fill:#2a4e96;fill-opacity:1;fill-rule:nonzero;stroke:none"
         id="path144" />
      <path
         d="m 18806.3,12423.6 c 17.9,-130 -17.8,-255.2 -89.7,-352.4 -71.9,-97.2 -179.9,-166.1 -306.8,-183.5 l -5376.4,-738.8 c -274.4,-37.7 -528.1,144.1 -563.8,404 -17.9,129.9 22,255.8 100.7,353.8 78.6,98.1 196.1,168.3 333.3,187.2 l 5376.3,738.7 c 253.9,34.9 490.7,-149.2 526.4,-409"
         style="fill:#ebf3fa;fill-opacity:1;fill-rule:nonzero;stroke:none"
         id="path146" />
      <path
         d="m 18806.3,12423.6 c 17.9,-130 -17.8,-255.2 -89.7,-352.4 -71.9,-97.2 -179.9,-166.1 -306.8,-183.5 l -972.9,-133.7 -129.9,944.9 972.9,133.7 c 253.9,34.9 490.7,-149.2 526.4,-409"
         style="fill:#f99746;fill-opacity:1;fill-rule:nonzero;stroke:none"
         id="path148" />
      <path
         d="m 18038.7,12553.2 c -80.1,-78.2 -81.6,-207 -3.4,-287.1 37.9,-38.8 88.7,-60.5 142.9,-61.1 54.2,-0.7 105.5,19.9 144.2,57.8 80.1,78.2 81.6,207 3.4,287.1 -78.3,80.1 -207.1,81.5 -287.1,3.3 z m 175.5,-386 c -12,-1.6 -24.2,-2.4 -36.5,-2.3 -64.9,0.8 -125.6,26.8 -171,73.2 -93.7,95.9 -91.9,250.1 4,343.7 95.9,93.7 250,91.9 343.7,-3.9 93.7,-95.9 91.9,-250.1 -4,-343.8 -37.6,-36.7 -85,-59.9 -136.2,-66.9"
         style="fill:#ffffff;fill-opacity:1;fill-rule:nonzero;stroke:none"
         id="path150" />
      <path
         d="m 17797.8,12006 -28,28.6 237.2,231.8 28,-28.6 -237.2,-231.8"
         style="fill:#ffffff;fill-opacity:1;fill-rule:nonzero;stroke:none"
         id="path152" />
      <path
         d="m 17701.3,11939.7 v 0 c -13.8,14.1 -13.5,36.8 0.6,50.6 l 139.7,136.5 c 14.1,13.8 36.8,13.5 50.6,-0.6 13.8,-14.1 13.5,-36.8 -0.6,-50.5 l -139.7,-136.6 c -14.2,-13.8 -36.8,-13.5 -50.6,0.6"
         style="fill:#ffffff;fill-opacity:1;fill-rule:nonzero;stroke:none"
         id="path154" />
      <path
         d="M 9777.91,7288.9 H 8654.66 c -23.38,0 -42.34,19 -42.34,42.4 v 17.8 c 0,23.4 18.96,42.3 42.34,42.3 h 1123.25 c 23.37,0 42.32,-18.9 42.32,-42.3 v -17.8 c 0,-23.4 -18.95,-42.4 -42.32,-42.4"
         style="fill:#f99746;fill-opacity:1;fill-rule:nonzero;stroke:none"
         id="path156" />
      <path
         d="m 9201.51,6936.6 h -554.22 c -19.31,0 -34.97,15.6 -34.97,34.9 0,19.3 15.66,35 34.97,35 h 554.22 c 19.31,0 34.97,-15.7 34.97,-35 0,-19.3 -15.66,-34.9 -34.97,-34.9"
         style="fill:#739af0;fill-opacity:1;fill-rule:nonzero;stroke:none"
         id="path158" />
      <path
         d="m 9625.89,7083.2 h -981.02 c -17.98,0 -32.55,14.6 -32.55,32.6 v 4.8 c 0,18 14.57,32.6 32.55,32.6 h 981.02 c 17.97,0 32.54,-14.6 32.54,-32.6 v -4.8 c 0,-18 -14.57,-32.6 -32.54,-32.6"
         style="fill:#739af0;fill-opacity:1;fill-rule:nonzero;stroke:none"
         id="path160" />
      <path
         d="m 10699.2,7083.2 h -913.98 c -17.37,0 -31.45,14.1 -31.45,31.5 v 7 c 0,17.4 14.08,31.5 31.45,31.5 h 913.98 c 17.3,0 31.4,-14.1 31.4,-31.5 v -7 c 0,-17.4 -14.1,-31.5 -31.4,-31.5"
         style="fill:#739af0;fill-opacity:1;fill-rule:nonzero;stroke:none"
         id="path162" />
      <path
         d="m 9892.77,6936.6 h -554.21 c -19.31,0 -34.97,15.6 -34.97,34.9 0,19.3 15.66,35 34.97,35 h 554.21 c 19.31,0 34.97,-15.7 34.97,-35 0,-19.3 -15.66,-34.9 -34.97,-34.9"
         style="fill:#739af0;fill-opacity:1;fill-rule:nonzero;stroke:none"
         id="path164" />
      <path
         d="m 11145.7,7288.9 h -1123.3 c -23.36,0 -42.3,19 -42.3,42.4 v 17.8 c 0,23.4 18.94,42.3 42.3,42.3 h 1123.3 c 23.4,0 42.3,-18.9 42.3,-42.3 v -17.8 c 0,-23.4 -18.9,-42.4 -42.3,-42.4"
         style="fill:#f99746;fill-opacity:1;fill-rule:nonzero;stroke:none"
         id="path166" />
      <path
         d="M 9777.91,6517.3 H 8654.66 c -23.38,0 -42.34,19 -42.34,42.4 v 17.8 c 0,23.4 18.96,42.3 42.34,42.3 h 1123.25 c 23.37,0 42.32,-18.9 42.32,-42.3 v -17.8 c 0,-23.4 -18.95,-42.4 -42.32,-42.4"
         style="fill:#f99746;fill-opacity:1;fill-rule:nonzero;stroke:none"
         id="path168" />
      <path
         d="m 9201.51,6165 h -554.22 c -19.31,0 -34.97,15.6 -34.97,34.9 0,19.3 15.66,35 34.97,35 h 554.22 c 19.31,0 34.97,-15.7 34.97,-35 0,-19.3 -15.66,-34.9 -34.97,-34.9"
         style="fill:#739af0;fill-opacity:1;fill-rule:nonzero;stroke:none"
         id="path170" />
      <path
         d="m 9625.89,6311.6 h -981.02 c -17.98,0 -32.55,14.6 -32.55,32.6 v 4.8 c 0,18 14.57,32.6 32.55,32.6 h 981.02 c 17.97,0 32.54,-14.6 32.54,-32.6 v -4.8 c 0,-18 -14.57,-32.6 -32.54,-32.6"
         style="fill:#739af0;fill-opacity:1;fill-rule:nonzero;stroke:none"
         id="path172" />
      <path
         d="m 10699.2,6311.6 h -913.98 c -17.37,0 -31.45,14.1 -31.45,31.5 v 7 c 0,17.4 14.08,31.5 31.45,31.5 h 913.98 c 17.3,0 31.4,-14.1 31.4,-31.5 v -7 c 0,-17.4 -14.1,-31.5 -31.4,-31.5"
         style="fill:#739af0;fill-opacity:1;fill-rule:nonzero;stroke:none"
         id="path174" />
      <path
         d="m 9892.77,6165 h -554.21 c -19.31,0 -34.97,15.6 -34.97,34.9 0,19.3 15.66,35 34.97,35 h 554.21 c 19.31,0 34.97,-15.7 34.97,-35 0,-19.3 -15.66,-34.9 -34.97,-34.9"
         style="fill:#739af0;fill-opacity:1;fill-rule:nonzero;stroke:none"
         id="path176" />
      <path
         d="m 11145.7,6517.3 h -1123.3 c -23.36,0 -42.3,19 -42.3,42.4 v 17.8 c 0,23.4 18.94,42.3 42.3,42.3 h 1123.3 c 23.4,0 42.3,-18.9 42.3,-42.3 v -17.8 c 0,-23.4 -18.9,-42.4 -42.3,-42.4"
         style="fill:#f99746;fill-opacity:1;fill-rule:nonzero;stroke:none"
         id="path178" />
      <path
         d="m 15616.3,11207.1 -641.5,-149.3 -317.2,-577.2 -242.2,1315.5 1200.9,-589"
         style="fill:#233862;fill-opacity:1;fill-rule:nonzero;stroke:none"
         id="path180" />
      <path
         d="m 15349.5,10643.8 -93.4,-70.8 -409.8,540.7 93.5,70.9 409.7,-540.8"
         style="fill:#233862;fill-opacity:1;fill-rule:nonzero;stroke:none"
         id="path182" />
      <path
         d="m 15196.3,8488 h -1577.4 c -63.9,0 -115.6,51.7 -115.6,115.6 V 10181 c 0,63.8 51.7,115.6 115.6,115.6 h 1577.4 c 63.9,0 115.6,-51.8 115.6,-115.6 V 8603.6 c 0,-63.9 -51.7,-115.6 -115.6,-115.6"
         style="fill:#d4e1ff;fill-opacity:1;fill-rule:nonzero;stroke:none"
         id="path184" />
      <path
         d="m 13734.4,8866.3 351.4,633.6 c 40.9,73.7 144.5,80.2 194.3,12.2 l 202.7,-276.5 c 43.1,-58.8 129.3,-63.5 178.5,-9.6 51.1,55.8 141.2,48.3 182.4,-15.2 l 218.7,-337.8 c 49.8,-76.9 -5.4,-178.4 -97,-178.4 h -1130 c -88.1,0 -143.8,94.6 -101,171.7"
         style="fill:#739af0;fill-opacity:1;fill-rule:nonzero;stroke:none"
         id="path186" />
      <path
         d="m 14427.9,9796 c 0,76.3 61.9,138.2 138.3,138.2 76.3,0 138.2,-61.9 138.2,-138.2 0,-76.4 -61.9,-138.3 -138.2,-138.3 -76.4,0 -138.3,61.9 -138.3,138.3"
         style="fill:#739af0;fill-opacity:1;fill-rule:nonzero;stroke:none"
         id="path188" />
      <path
         d="m 17510.1,8439.2 -1563,-213.1 c -63.2,-8.7 -121.5,35.6 -130.1,98.9 l -213.2,1562.9 c -8.6,63.3 35.6,121.6 98.9,130.2 l 1563,213.2 c 63.2,8.6 121.5,-35.7 130.1,-98.9 l 213.2,-1563 c 8.6,-63.2 -35.6,-121.5 -98.9,-130.2"
         style="fill:#d4e1ff;fill-opacity:1;fill-rule:nonzero;stroke:none"
         id="path190" />
      <path
         d="m 16010.4,8616.5 262.6,675.3 c 30.6,78.6 132.3,99 190.9,38.4 l 238.2,-246.6 c 50.7,-52.4 136.7,-45.4 178.2,14.6 43.1,62.2 133.3,66.9 182.7,9.6 l 262.4,-305.1 c 59.7,-69.5 18.7,-177.5 -72.1,-189.9 l -1119.5,-152.7 c -87.3,-12 -155.3,74.3 -123.4,156.4"
         style="fill:#739af0;fill-opacity:1;fill-rule:nonzero;stroke:none"
         id="path192" />
      <path
         d="m 16572,9631.4 c -10.3,75.7 42.6,145.4 118.3,155.7 75.6,10.3 145.3,-42.7 155.6,-118.3 10.4,-75.7 -42.6,-145.4 -118.3,-155.7 -75.6,-10.3 -145.3,42.7 -155.6,118.3"
         style="fill:#739af0;fill-opacity:1;fill-rule:nonzero;stroke:none"
         id="path194" />
      <path
         d="M 12914.5,2070.4 H 12003 v 781.5 h 911.5 v -781.5"
         style="fill:#f99746;fill-opacity:1;fill-rule:nonzero;stroke:none"
         id="path196" />
      <path
         d="m 12945.3,2824.9 h -979.1 v 60.4 h 979.1 v -60.4"
         style="fill:#aec3ff;fill-opacity:1;fill-rule:nonzero;stroke:none"
         id="path198" />
      <path
         d="M 12914.5,2392.2 H 12003 v 248.2 h 911.5 v -248.2"
         style="fill:#f9ddbf;fill-opacity:1;fill-rule:nonzero;stroke:none"
         id="path200" />
      <path
         d="m 14023.4,2069.8 h -860.6 c -31.5,0 -57.1,25.5 -57.1,57.1 v 95.4 c 0,34 29.6,60.5 63.4,56.7 l 860.6,-95.4 c 28.9,-3.2 50.8,-27.7 50.8,-56.7 0,-31.6 -25.6,-57.1 -57.1,-57.1"
         style="fill:#f99746;fill-opacity:1;fill-rule:nonzero;stroke:none"
         id="path202" />
      <path
         d="m 26061.4,1992.5 -23961.84,8.3 c -16.06,0 -29.2,13.2 -29.2,29.2 l 0.01,15 c 0,16 13.15,29.2 29.21,29.2 l 23961.82,-8.3 c 16.1,0 29.2,-13.1 29.2,-29.2 v -15 c 0,-16 -13.1,-29.2 -29.2,-29.2"
         style="fill:#2e3552;fill-opacity:1;fill-rule:nonzero;stroke:none"
         id="path204" />
      <path
         d="m 9278.81,10602.1 h -98.51 c -9.01,0 -16.31,7.3 -16.31,16.3 0,9 7.3,16.3 16.31,16.3 h 98.51 c 9,0 16.3,-7.3 16.3,-16.3 0,-9 -7.3,-16.3 -16.3,-16.3 z m 197.02,0 h -98.51 c -9,0 -16.31,7.3 -16.31,16.3 0,9 7.31,16.3 16.31,16.3 h 98.51 c 9,0 16.3,-7.3 16.3,-16.3 0,-9 -7.3,-16.3 -16.3,-16.3 z m 197.03,0 h -98.52 c -9,0 -16.31,7.3 -16.31,16.3 0,9 7.31,16.3 16.31,16.3 h 98.52 c 9,0 16.31,-7.3 16.31,-16.3 0,-9 -7.31,-16.3 -16.31,-16.3 z m 197.02,0 h -98.51 c -9.01,0 -16.31,7.3 -16.31,16.3 0,9 7.3,16.3 16.31,16.3 h 98.51 c 9,0 16.31,-7.3 16.31,-16.3 0,-9 -7.31,-16.3 -16.31,-16.3 z m 197.02,0 h -98.51 c -9.01,0 -16.31,7.3 -16.31,16.3 0,9 7.3,16.3 16.31,16.3 h 98.51 c 9,0 16.3,-7.3 16.3,-16.3 0,-9 -7.3,-16.3 -16.3,-16.3 z m 197,0 h -98.5 c -9,0 -16.3,7.3 -16.3,16.3 0,9 7.3,16.3 16.3,16.3 h 98.5 c 9,0 16.3,-7.3 16.3,-16.3 0,-9 -7.3,-16.3 -16.3,-16.3 z m 197,0 h -98.5 c -9,0 -16.3,7.3 -16.3,16.3 0,9 7.3,16.3 16.3,16.3 h 98.5 c 9.1,0 16.4,-7.3 16.4,-16.3 0,-9 -7.3,-16.3 -16.4,-16.3 z m 197.1,0 h -98.5 c -9,0 -16.4,7.3 -16.4,16.3 0,9 7.4,16.3 16.4,16.3 h 98.5 c 9,0 16.3,-7.3 16.3,-16.3 0,-9 -7.3,-16.3 -16.3,-16.3 z m 197,0 h -98.5 c -9,0 -16.3,7.3 -16.3,16.3 0,9 7.3,16.3 16.3,16.3 h 98.5 c 9,0 16.3,-7.3 16.3,-16.3 0,-9 -7.3,-16.3 -16.3,-16.3 z m 197,0 h -98.5 c -9,0 -16.3,7.3 -16.3,16.3 0,9 7.3,16.3 16.3,16.3 h 98.5 c 9,0 16.3,-7.3 16.3,-16.3 0,-9 -7.3,-16.3 -16.3,-16.3 z m 197,0 h -98.5 c -9,0 -16.3,7.3 -16.3,16.3 0,9 7.3,16.3 16.3,16.3 h 98.5 c 9,0 16.3,-7.3 16.3,-16.3 0,-9 -7.3,-16.3 -16.3,-16.3 z m 197.1,0 h -98.6 c -9,0 -16.3,7.3 -16.3,16.3 0,9 7.3,16.3 16.3,16.3 h 98.6 c 9,0 16.3,-7.3 16.3,-16.3 0,-9 -7.3,-16.3 -16.3,-16.3 z m 197,0 h -98.5 c -9,0 -16.3,7.3 -16.3,16.3 0,9 7.3,16.3 16.3,16.3 h 98.5 c 9,0 16.3,-7.3 16.3,-16.3 0,-9 -7.3,-16.3 -16.3,-16.3 z m 197,0 h -98.5 c -9,0 -16.3,7.3 -16.3,16.3 0,9 7.3,16.3 16.3,16.3 h 98.5 c 9,0 16.3,-7.3 16.3,-16.3 0,-9 -7.3,-16.3 -16.3,-16.3 z m 197,0 h -98.5 c -9,0 -16.3,7.3 -16.3,16.3 0,9 7.3,16.3 16.3,16.3 h 98.5 c 9,0 16.3,-7.3 16.3,-16.3 0,-9 -7.3,-16.3 -16.3,-16.3 z m 197.1,0 h -98.6 c -9,0 -16.3,7.3 -16.3,16.3 0,9 7.3,16.3 16.3,16.3 h 98.6 c 9,0 16.3,-7.3 16.3,-16.3 0,-9 -7.3,-16.3 -16.3,-16.3 z m 197,0 h -98.5 c -9,0 -16.3,7.3 -16.3,16.3 0,9 7.3,16.3 16.3,16.3 h 98.5 c 9,0 16.3,-7.3 16.3,-16.3 0,-9 -7.3,-16.3 -16.3,-16.3 z m -3442.17,-28.5 c -5.23,0 -10.37,2.5 -13.52,7.2 -5.05,7.5 -3.09,17.6 4.37,22.6 30.14,20.4 65.36,31.2 101.87,31.3 h 0.04 c 8.99,0 16.29,-7.3 16.3,-16.3 0.02,-9 -7.26,-16.3 -16.27,-16.3 -29.99,-0.1 -58.92,-8.9 -83.67,-25.7 -2.79,-1.9 -5.97,-2.8 -9.12,-2.8 z m 3631.47,-5.8 c -3.4,0 -6.9,1.1 -9.9,3.3 -23.7,18.3 -52.1,28.9 -81.9,30.7 -9,0.6 -15.9,8.3 -15.3,17.3 0.5,9 8.4,15.9 17.3,15.3 36.3,-2.3 70.9,-15.2 99.8,-37.4 7.1,-5.5 8.5,-15.7 3,-22.9 -3.2,-4.1 -8.1,-6.3 -13,-6.3 z m -3704.74,-166.5 c -9.01,0 -16.31,7.3 -16.31,16.3 v 34.4 c 0,23.7 4.49,46.8 13.33,68.6 3.39,8.4 12.9,12.4 21.24,9 8.34,-3.3 12.37,-12.9 8.98,-21.2 -7.26,-17.9 -10.93,-36.9 -10.93,-56.4 v -34.4 c 0,-9 -7.31,-16.3 -16.31,-16.3 z m 3769.94,-10 c -9,0 -16.3,7.3 -16.3,16.3 v 44.4 c 0,16.4 -2.6,32.5 -7.8,47.9 -2.9,8.5 1.7,17.8 10.2,20.7 8.6,2.9 17.8,-1.7 20.7,-10.3 6.3,-18.7 9.5,-38.3 9.5,-58.3 v -44.4 c 0,-9 -7.3,-16.3 -16.3,-16.3 z m -3769.94,-187 c -9.01,0 -16.31,7.3 -16.31,16.3 v 98.5 c 0,9 7.3,16.3 16.31,16.3 9,0 16.31,-7.3 16.31,-16.3 v -98.5 c 0,-9 -7.31,-16.3 -16.31,-16.3 z m 3769.94,-10.1 c -9,0 -16.3,7.3 -16.3,16.3 v 98.6 c 0,9 7.3,16.3 16.3,16.3 9,0 16.3,-7.3 16.3,-16.3 v -98.6 c 0,-9 -7.3,-16.3 -16.3,-16.3 z m -3769.94,-187 c -9.01,0 -16.31,7.3 -16.31,16.3 v 98.6 c 0,9 7.3,16.3 16.31,16.3 9,0 16.31,-7.3 16.31,-16.3 v -98.6 c 0,-9 -7.31,-16.3 -16.31,-16.3 z m 3769.94,-10 c -9,0 -16.3,7.3 -16.3,16.3 v 98.5 c 0,9 7.3,16.3 16.3,16.3 9,0 16.3,-7.3 16.3,-16.3 v -98.5 c 0,-9 -7.3,-16.3 -16.3,-16.3 z m -3769.94,-187 c -9.01,0 -16.31,7.3 -16.31,16.3 v 98.5 c 0,9 7.3,16.3 16.31,16.3 9,0 16.31,-7.3 16.31,-16.3 v -98.5 c 0,-9 -7.31,-16.3 -16.31,-16.3 z m 3769.94,-10 c -9,0 -16.3,7.3 -16.3,16.3 v 98.5 c 0,9 7.3,16.3 16.3,16.3 9,0 16.3,-7.3 16.3,-16.3 v -98.5 c 0,-9 -7.3,-16.3 -16.3,-16.3 z m -3769.94,-187 c -9.01,0 -16.31,7.3 -16.31,16.3 v 98.5 c 0,9 7.3,16.3 16.31,16.3 9,0 16.31,-7.3 16.31,-16.3 v -98.5 c 0,-9 -7.31,-16.3 -16.31,-16.3 z m 3769.94,-10 c -9,0 -16.3,7.3 -16.3,16.3 v 98.5 c 0,9 7.3,16.3 16.3,16.3 9,0 16.3,-7.3 16.3,-16.3 v -98.5 c 0,-9 -7.3,-16.3 -16.3,-16.3 z m -3769.94,-187 c -9.01,0 -16.31,7.3 -16.31,16.3 v 98.5 c 0,9 7.3,16.3 16.31,16.3 9,0 16.31,-7.3 16.31,-16.3 v -98.5 c 0,-9 -7.31,-16.3 -16.31,-16.3 z m 3769.94,-10.1 c -9,0 -16.3,7.3 -16.3,16.4 v 98.5 c 0,9 7.3,16.3 16.3,16.3 9,0 16.3,-7.3 16.3,-16.3 v -98.5 c 0,-9.1 -7.3,-16.4 -16.3,-16.4 z m -3769.94,-187 c -9.01,0 -16.31,7.3 -16.31,16.3 v 98.6 c 0,9 7.3,16.3 16.31,16.3 9,0 16.31,-7.3 16.31,-16.3 v -98.6 c 0,-9 -7.31,-16.3 -16.31,-16.3 z m 3769.94,-10 c -9,0 -16.3,7.3 -16.3,16.3 v 98.5 c 0,9 7.3,16.3 16.3,16.3 9,0 16.3,-7.3 16.3,-16.3 v -98.5 c 0,-9 -7.3,-16.3 -16.3,-16.3 z m -3769.94,-187 c -9.01,0 -16.31,7.3 -16.31,16.3 v 98.5 c 0,9 7.3,16.3 16.31,16.3 9,0 16.31,-7.3 16.31,-16.3 v -98.5 c 0,-9 -7.31,-16.3 -16.31,-16.3 z m 3769.94,-10 c -9,0 -16.3,7.3 -16.3,16.3 v 98.5 c 0,9 7.3,16.3 16.3,16.3 9,0 16.3,-7.3 16.3,-16.3 v -98.5 c 0,-9 -7.3,-16.3 -16.3,-16.3 z m -3769.94,-187 c -9.01,0 -16.31,7.3 -16.31,16.3 v 98.5 c 0,9 7.3,16.3 16.31,16.3 9,0 16.31,-7.3 16.31,-16.3 v -98.5 c 0,-9 -7.31,-16.3 -16.31,-16.3 z m 3769.94,-10 c -9,0 -16.3,7.3 -16.3,16.3 v 98.5 c 0,9 7.3,16.3 16.3,16.3 9,0 16.3,-7.3 16.3,-16.3 v -98.5 c 0,-9 -7.3,-16.3 -16.3,-16.3 z m -3769.94,-187 c -9.01,0 -16.31,7.3 -16.31,16.3 v 98.5 c 0,9 7.3,16.3 16.31,16.3 9,0 16.31,-7.3 16.31,-16.3 v -98.5 c 0,-9 -7.31,-16.3 -16.31,-16.3 z M 12685.7,8618 c -9,0 -16.3,7.4 -16.3,16.4 v 98.5 c 0,9 7.3,16.3 16.3,16.3 9,0 16.3,-7.3 16.3,-16.3 v -98.5 c 0,-9 -7.3,-16.4 -16.3,-16.4 z M 8980.62,8451.4 c -3.48,0 -6.98,1.1 -9.95,3.4 -28.93,22.3 -50.31,52.4 -61.83,86.8 -2.86,8.6 1.75,17.8 10.3,20.7 8.52,2.8 17.77,-1.8 20.63,-10.3 9.46,-28.3 27.03,-53 50.81,-71.3 7.13,-5.5 8.46,-15.8 2.96,-22.9 -3.21,-4.2 -8.04,-6.4 -12.92,-6.4 z m 3632.08,-5.8 c -5.2,0 -10.3,2.5 -13.5,7.1 -5,7.5 -3.1,17.6 4.3,22.7 24.9,16.8 43.9,40.4 55.1,68.1 3.3,8.3 12.8,12.4 21.2,9 8.3,-3.3 12.4,-12.8 9,-21.2 -13.6,-33.7 -36.7,-62.4 -66.9,-82.9 -2.8,-1.9 -6,-2.8 -9.2,-2.8 z m -3442.76,-28.7 h -87.82 c -3.93,0 -7.84,0.1 -11.72,0.4 -8.98,0.6 -15.81,8.3 -15.24,17.3 0.57,9 8.31,15.9 17.31,15.2 3.19,-0.2 6.41,-0.3 9.65,-0.3 h 87.82 c 9,0 16.3,-7.3 16.3,-16.3 0,-9 -7.3,-16.3 -16.3,-16.3 z m 197.02,0 h -98.51 c -9.01,0 -16.31,7.3 -16.31,16.3 0,9 7.3,16.3 16.31,16.3 h 98.51 c 9,0 16.3,-7.3 16.3,-16.3 0,-9 -7.3,-16.3 -16.3,-16.3 z m 197.02,0 h -98.51 c -9.01,0 -16.3,7.3 -16.3,16.3 0,9 7.29,16.3 16.3,16.3 h 98.51 c 9.01,0 16.31,-7.3 16.31,-16.3 0,-9 -7.3,-16.3 -16.31,-16.3 z m 197.03,0 h -98.51 c -9.01,0 -16.31,7.3 -16.31,16.3 0,9 7.3,16.3 16.31,16.3 h 98.51 c 9,0 16.3,-7.3 16.3,-16.3 0,-9 -7.3,-16.3 -16.3,-16.3 z m 197.02,0 h -98.51 c -9.01,0 -16.31,7.3 -16.31,16.3 0,9 7.3,16.3 16.31,16.3 h 98.51 c 9,0 16.31,-7.3 16.31,-16.3 0,-9 -7.31,-16.3 -16.31,-16.3 z m 196.97,0 h -98.5 c -9,0 -16.3,7.3 -16.3,16.3 0,9 7.3,16.3 16.3,16.3 h 98.5 c 9.1,0 16.4,-7.3 16.4,-16.3 0,-9 -7.3,-16.3 -16.4,-16.3 z m 197.1,0 h -98.5 c -9,0 -16.3,7.3 -16.3,16.3 0,9 7.3,16.3 16.3,16.3 h 98.5 c 9,0 16.3,-7.3 16.3,-16.3 0,-9 -7.3,-16.3 -16.3,-16.3 z m 197,0 h -98.5 c -9,0 -16.3,7.3 -16.3,16.3 0,9 7.3,16.3 16.3,16.3 h 98.5 c 9,0 16.3,-7.3 16.3,-16.3 0,-9 -7.3,-16.3 -16.3,-16.3 z m 197,0 h -98.5 c -9,0 -16.3,7.3 -16.3,16.3 0,9 7.3,16.3 16.3,16.3 h 98.5 c 9,0 16.3,-7.3 16.3,-16.3 0,-9 -7.3,-16.3 -16.3,-16.3 z m 197,0 h -98.5 c -9,0 -16.3,7.3 -16.3,16.3 0,9 7.3,16.3 16.3,16.3 h 98.5 c 9,0 16.3,-7.3 16.3,-16.3 0,-9 -7.3,-16.3 -16.3,-16.3 z m 197.1,0 h -98.5 c -9.1,0 -16.4,7.3 -16.4,16.3 0,9 7.3,16.3 16.4,16.3 h 98.5 c 9,0 16.3,-7.3 16.3,-16.3 0,-9 -7.3,-16.3 -16.3,-16.3 z m 197,0 h -98.5 c -9,0 -16.3,7.3 -16.3,16.3 0,9 7.3,16.3 16.3,16.3 h 98.5 c 9,0 16.3,-7.3 16.3,-16.3 0,-9 -7.3,-16.3 -16.3,-16.3 z m 197,0 h -98.5 c -9,0 -16.3,7.3 -16.3,16.3 0,9 7.3,16.3 16.3,16.3 h 98.5 c 9,0 16.3,-7.3 16.3,-16.3 0,-9 -7.3,-16.3 -16.3,-16.3 z m 197,0 h -98.5 c -9,0 -16.3,7.3 -16.3,16.3 0,9 7.3,16.3 16.3,16.3 h 98.5 c 9,0 16.3,-7.3 16.3,-16.3 0,-9 -7.3,-16.3 -16.3,-16.3 z m 197.1,0 h -98.6 c -9,0 -16.3,7.3 -16.3,16.3 0,9 7.3,16.3 16.3,16.3 h 98.6 c 9,0 16.3,-7.3 16.3,-16.3 0,-9 -7.3,-16.3 -16.3,-16.3 z m 197,0 h -98.5 c -9,0 -16.3,7.3 -16.3,16.3 0,9 7.3,16.3 16.3,16.3 h 98.5 c 9,0 16.3,-7.3 16.3,-16.3 0,-9 -7.3,-16.3 -16.3,-16.3 z m 197,0 h -98.5 c -9,0 -16.3,7.3 -16.3,16.3 0,9 7.3,16.3 16.3,16.3 h 98.5 c 9,0 16.3,-7.3 16.3,-16.3 0,-9 -7.3,-16.3 -16.3,-16.3 z m 197.7,0 h -99.2 c -9,0 -16.3,7.3 -16.3,16.3 0,9 7.3,16.3 16.3,16.3 h 98.5 c 9,0 16.7,-7.3 16.7,-16.3 0,-9 -7,-16.3 -16,-16.3"
         style="fill:#739af0;fill-opacity:1;fill-rule:nonzero;stroke:none"
         id="path206" />
      <path
         d="m 16551.1,6231.9 h -86.9 c -8,0 -14.6,6.4 -14.6,14.4 0,8 6.3,14.4 14.2,14.4 h 87.3 c 8,0 14.4,-6.4 14.4,-14.4 0,-8 -6.4,-14.4 -14.4,-14.4 z m 174.5,0 h -87.2 c -8,0 -14.5,6.4 -14.5,14.4 0,8 6.5,14.4 14.5,14.4 h 87.2 c 8,0 14.5,-6.4 14.5,-14.4 0,-8 -6.5,-14.4 -14.5,-14.4 z m 174.6,0 h -87.3 c -8,0 -14.4,6.4 -14.4,14.4 0,8 6.4,14.4 14.4,14.4 h 87.3 c 8,0 14.4,-6.4 14.4,-14.4 0,-8 -6.4,-14.4 -14.4,-14.4 z m 174.5,0 h -87.3 c -7.9,0 -14.4,6.4 -14.4,14.4 0,8 6.5,14.4 14.4,14.4 h 87.3 c 8,0 14.5,-6.4 14.5,-14.4 0,-8 -6.5,-14.4 -14.5,-14.4 z m 174.5,0 h -87.2 c -8,0 -14.5,6.4 -14.5,14.4 0,8 6.5,14.4 14.5,14.4 h 87.2 c 8,0 14.5,-6.4 14.5,-14.4 0,-8 -6.5,-14.4 -14.5,-14.4 z m 174.6,0 h -87.3 c -8,0 -14.4,6.4 -14.4,14.4 0,8 6.4,14.4 14.4,14.4 h 87.3 c 8,0 14.4,-6.4 14.4,-14.4 0,-8 -6.4,-14.4 -14.4,-14.4 z m 174.5,0 h -87.2 c -8,0 -14.5,6.4 -14.5,14.4 0,8 6.5,14.4 14.5,14.4 h 87.2 c 8,0 14.5,-6.4 14.5,-14.4 0,-8 -6.5,-14.4 -14.5,-14.4 z m 174.6,0 h -87.3 c -8,0 -14.5,6.4 -14.5,14.4 0,8 6.5,14.4 14.5,14.4 h 87.3 c 7.9,0 14.4,-6.4 14.4,-14.4 0,-8 -6.5,-14.4 -14.4,-14.4 z m 174.5,0 h -87.3 c -8,0 -14.4,6.4 -14.4,14.4 0,8 6.4,14.4 14.4,14.4 h 87.3 c 8,0 14.4,-6.4 14.4,-14.4 0,-8 -6.4,-14.4 -14.4,-14.4 z m 174.5,-0.1 h -0.6 l -2,0.1 h -84.6 c -8,0 -14.5,6.4 -14.5,14.4 0,8 6.5,14.4 14.5,14.4 h 84.6 c 1.1,0 2.2,0 3.3,0 7.9,-0.4 14.1,-7.1 13.8,-15.1 -0.4,-7.7 -6.8,-13.8 -14.5,-13.8 z m -1714.8,-142.2 c -8,0 -14.5,6.5 -14.5,14.5 v 85.1 c 0,0.9 0,1.8 0.1,2.7 0.3,8 6.7,14.3 15,13.9 7.9,-0.4 14.1,-7.1 13.8,-15 v -1.6 -85.1 c 0,-8 -6.5,-14.5 -14.4,-14.5 z m 1769.3,-2.3 c -8,0 -14.5,6.5 -14.5,14.4 v 87.3 c 0,8 6.5,14.4 14.5,14.4 8,0 14.4,-6.4 14.4,-14.4 v -87.3 c 0,-7.9 -6.4,-14.4 -14.4,-14.4 z m -1769.3,-172.2 c -8,0 -14.5,6.5 -14.5,14.4 v 87.3 c 0,8 6.5,14.4 14.5,14.4 7.9,0 14.4,-6.4 14.4,-14.4 v -87.3 c 0,-7.9 -6.5,-14.4 -14.4,-14.4 z m 1769.3,-2.3 c -8,0 -14.5,6.4 -14.5,14.4 v 87.3 c 0,7.9 6.5,14.4 14.5,14.4 8,0 14.4,-6.5 14.4,-14.4 v -87.3 c 0,-8 -6.4,-14.4 -14.4,-14.4 z m -1769.3,-172.2 c -8,0 -14.5,6.4 -14.5,14.4 v 87.3 c 0,7.9 6.5,14.4 14.5,14.4 7.9,0 14.4,-6.5 14.4,-14.4 V 5755 c 0,-8 -6.5,-14.4 -14.4,-14.4 z m 1769.3,-2.4 h -0.5 c -8,0.3 -14.2,7 -14,14.9 v 1.4 85.4 c 0,8 6.5,14.5 14.5,14.5 8,0 14.4,-6.5 14.4,-14.5 v -87.7 c -0.3,-7.8 -6.7,-14 -14.4,-14 z m -1628,-55.3 h -84.2 c -1.3,0 -2.5,0.1 -3.7,0.1 -8,0.4 -14.1,7.2 -13.8,15.2 0.4,7.9 6.9,13.9 15.2,13.7 l 2.3,-0.1 h 84.2 c 8,0 14.5,-6.4 14.5,-14.4 0,-8 -6.5,-14.5 -14.5,-14.5 z m 174.6,0 h -87.3 c -8,0 -14.4,6.5 -14.4,14.5 0,8 6.4,14.4 14.4,14.4 h 87.3 c 8,0 14.4,-6.4 14.4,-14.4 0,-8 -6.4,-14.5 -14.4,-14.5 z m 174.5,0 h -87.3 c -7.9,0 -14.4,6.5 -14.4,14.5 0,8 6.5,14.4 14.4,14.4 h 87.3 c 8,0 14.5,-6.4 14.5,-14.4 0,-8 -6.5,-14.5 -14.5,-14.5 z m 174.6,0 h -87.3 c -8,0 -14.5,6.5 -14.5,14.5 0,8 6.5,14.4 14.5,14.4 h 87.3 c 7.9,0 14.4,-6.4 14.4,-14.4 0,-8 -6.5,-14.5 -14.4,-14.5 z m 174.5,0 h -87.3 c -8,0 -14.4,6.5 -14.4,14.5 0,8 6.4,14.4 14.4,14.4 h 87.3 c 8,0 14.4,-6.4 14.4,-14.4 0,-8 -6.4,-14.5 -14.4,-14.5 z m 174.5,0 h -87.3 c -7.9,0 -14.4,6.5 -14.4,14.5 0,8 6.5,14.4 14.4,14.4 h 87.3 c 8,0 14.5,-6.4 14.5,-14.4 0,-8 -6.5,-14.5 -14.5,-14.5 z m 174.6,0 h -87.3 c -8,0 -14.5,6.5 -14.5,14.5 0,8 6.5,14.4 14.5,14.4 h 87.3 c 7.9,0 14.4,-6.4 14.4,-14.4 0,-8 -6.5,-14.5 -14.4,-14.5 z m 174.5,0 h -87.3 c -8,0 -14.4,6.5 -14.4,14.5 0,8 6.4,14.4 14.4,14.4 h 87.3 c 8,0 14.4,-6.4 14.4,-14.4 0,-8 -6.4,-14.5 -14.4,-14.5 z m 174.5,0 h -87.2 c -8,0 -14.5,6.5 -14.5,14.5 0,8 6.5,14.4 14.5,14.4 h 87.2 c 8,0 14.5,-6.4 14.5,-14.4 0,-8 -6.5,-14.5 -14.5,-14.5 z m 175.2,0 h -87.9 c -8,0 -14.5,6.5 -14.5,14.5 0,8 6.5,14.4 14.5,14.4 h 87.3 c 7.9,0 14.7,-6.4 14.7,-14.4 0,-8 -6.1,-14.5 -14.1,-14.5"
         style="fill:#739af0;fill-opacity:1;fill-rule:nonzero;stroke:none"
         id="path208" />
      <path
         d="m 10671.6,12192.8 h -96.2 c -9,0 -16.5,7.3 -16.5,16.3 0,9 7.2,16.3 16.2,16.3 h 96.5 c 9,0 16.3,-7.3 16.3,-16.3 0,-9 -7.3,-16.3 -16.3,-16.3 z m 193.2,0 h -96.6 c -9,0 -16.3,7.3 -16.3,16.3 0,9 7.3,16.3 16.3,16.3 h 96.6 c 9,0 16.3,-7.3 16.3,-16.3 0,-9 -7.3,-16.3 -16.3,-16.3 z m 193.1,0 h -96.6 c -9,0 -16.3,7.3 -16.3,16.3 0,9 7.3,16.3 16.3,16.3 h 96.6 c 9,0 16.3,-7.3 16.3,-16.3 0,-9 -7.3,-16.3 -16.3,-16.3 z m 193.1,0 h -96.5 c -9,0 -16.3,7.3 -16.3,16.3 0,9 7.3,16.3 16.3,16.3 h 96.5 c 9,0 16.3,-7.3 16.3,-16.3 0,-9 -7.3,-16.3 -16.3,-16.3 z m 193.2,0 h -96.6 c -9,0 -16.3,7.3 -16.3,16.3 0,9 7.3,16.3 16.3,16.3 h 96.6 c 9,0 16.3,-7.3 16.3,-16.3 0,-9 -7.3,-16.3 -16.3,-16.3 z m 193.1,0 h -96.6 c -9,0 -16.3,7.3 -16.3,16.3 0,9 7.3,16.3 16.3,16.3 h 96.6 c 9,0 16.3,-7.3 16.3,-16.3 0,-9 -7.3,-16.3 -16.3,-16.3 z m 193.1,0 h -96.5 c -9,0 -16.3,7.3 -16.3,16.3 0,9 7.3,16.3 16.3,16.3 h 96.5 c 9,0 16.4,-7.3 16.4,-16.3 0,-9 -7.4,-16.3 -16.4,-16.3 z m 135.8,-91.8 c -9,0 -16.3,7.3 -16.3,16.3 v 11.6 c 0,23 -12.5,44.4 -32.7,55.7 -7.8,4.5 -10.6,14.4 -6.2,22.3 4.4,7.8 14.4,10.6 22.2,6.2 30.4,-17.1 49.3,-49.4 49.3,-84.2 v -11.6 c 0,-9 -7.3,-16.3 -16.3,-16.3 z m -1471.1,-55.8 c -9,0 -16.3,7.3 -16.3,16.3 v 67.4 c 0,11.8 2.2,23.4 6.3,34.3 3.2,8.4 12.6,12.7 21.1,9.5 8.4,-3.2 12.6,-12.7 9.4,-21.1 -2.8,-7.2 -4.1,-14.9 -4.1,-22.7 v -67.4 c 0,-9 -7.4,-16.3 -16.4,-16.3 z m 1471.1,-137.3 c -9,0 -16.3,7.3 -16.3,16.3 v 96.6 c 0,9 7.3,16.3 16.3,16.3 9,0 16.3,-7.3 16.3,-16.3 v -96.6 c 0,-9 -7.3,-16.3 -16.3,-16.3 z m -1471.1,-55.8 c -9,0 -16.3,7.3 -16.3,16.3 v 96.5 c 0,9 7.3,16.3 16.3,16.3 9,0 16.4,-7.3 16.4,-16.3 v -96.5 c 0,-9 -7.4,-16.3 -16.4,-16.3 z m 1471.1,-137.3 c -9,0 -16.3,7.3 -16.3,16.3 v 96.5 c 0,9 7.3,16.3 16.3,16.3 9,0 16.3,-7.3 16.3,-16.3 v -96.5 c 0,-9 -7.3,-16.3 -16.3,-16.3 z m -1471.1,-55.9 c -9,0 -16.3,7.3 -16.3,16.3 v 96.6 c 0,9 7.3,16.3 16.3,16.3 9,0 16.4,-7.3 16.4,-16.3 v -96.6 c 0,-9 -7.4,-16.3 -16.4,-16.3 z m 1471.1,-137.3 c -9,0 -16.3,7.3 -16.3,16.3 v 96.6 c 0,9 7.3,16.3 16.3,16.3 9,0 16.3,-7.3 16.3,-16.3 v -96.6 c 0,-9 -7.3,-16.3 -16.3,-16.3 z m -1471.1,-55.8 c -9,0 -16.3,7.3 -16.3,16.3 v 96.6 c 0,9 7.3,16.3 16.3,16.3 9,0 16.4,-7.3 16.4,-16.3 v -96.6 c 0,-9 -7.4,-16.3 -16.4,-16.3 z m 1471.1,-137.3 c -9,0 -16.3,7.3 -16.3,16.3 v 96.6 c 0,9 7.3,16.3 16.3,16.3 9,0 16.3,-7.3 16.3,-16.3 v -96.6 c 0,-9 -7.3,-16.3 -16.3,-16.3 z m -1471.1,-55.9 c -9,0 -16.3,7.3 -16.3,16.3 v 96.6 c 0,9 7.3,16.3 16.3,16.3 9,0 16.4,-7.3 16.4,-16.3 v -96.6 c 0,-9 -7.4,-16.3 -16.4,-16.3 z m 1471.1,-137.2 c -9,0 -16.3,7.3 -16.3,16.3 v 96.5 c 0,9 7.3,16.3 16.3,16.3 9,0 16.3,-7.3 16.3,-16.3 v -96.5 c 0,-9 -7.3,-16.3 -16.3,-16.3 z m -1471.1,-55.9 c -9,0 -16.3,7.3 -16.3,16.3 v 96.6 c 0,9 7.3,16.3 16.3,16.3 9,0 16.4,-7.3 16.4,-16.3 v -96.6 c 0,-9 -7.4,-16.3 -16.4,-16.3 z m 1466,-136.7 c -1.9,0 -3.9,0.4 -5.8,1.1 -8.4,3.2 -12.6,12.5 -9.5,21 2.7,7.2 4.1,14.7 4.1,22.5 v 67.7 c 0,9 7.3,16.3 16.3,16.3 9,0 16.3,-7.3 16.3,-16.3 v -67.7 c 0,-11.7 -2.1,-23.1 -6.2,-34 -2.4,-6.5 -8.6,-10.6 -15.2,-10.6 z m -1425.3,-41.5 c -2.7,0 -5.5,0.6 -8,2.1 -30.2,17.1 -49,49.3 -49,84 v 11.8 c 0,9.1 7.3,16.4 16.3,16.4 9,0 16.4,-7.3 16.4,-16.4 v -11.8 c -0.1,-23 12.4,-44.3 32.4,-55.6 7.8,-4.5 10.6,-14.4 6.1,-22.3 -3,-5.3 -8.5,-8.2 -14.2,-8.2 z m 191.4,-10.4 h -96.6 c -9,0 -16.3,7.3 -16.3,16.3 0,9 7.3,16.3 16.3,16.3 h 96.6 c 9,0 16.3,-7.3 16.3,-16.3 0,-9 -7.3,-16.3 -16.3,-16.3 z m 193.1,0 h -96.6 c -9,0 -16.3,7.3 -16.3,16.3 0,9 7.3,16.3 16.3,16.3 h 96.6 c 9,0 16.3,-7.3 16.3,-16.3 0,-9 -7.3,-16.3 -16.3,-16.3 z m 193.1,0 h -96.5 c -9,0 -16.3,7.3 -16.3,16.3 0,9 7.3,16.3 16.3,16.3 h 96.5 c 9,0 16.4,-7.3 16.4,-16.3 0,-9 -7.4,-16.3 -16.4,-16.3 z m 193.2,0 h -96.6 c -9,0 -16.3,7.3 -16.3,16.3 0,9 7.3,16.3 16.3,16.3 h 96.6 c 9,0 16.3,-7.3 16.3,-16.3 0,-9 -7.3,-16.3 -16.3,-16.3 z m 193.1,0 h -96.6 c -9,0 -16.3,7.3 -16.3,16.3 0,9 7.3,16.3 16.3,16.3 h 96.6 c 9,0 16.3,-7.3 16.3,-16.3 0,-9 -7.3,-16.3 -16.3,-16.3 z m 193.2,0 h -96.6 c -9,0 -16.3,7.3 -16.3,16.3 0,9 7.3,16.3 16.3,16.3 h 96.6 c 9,0 16.3,-7.3 16.3,-16.3 0,-9 -7.3,-16.3 -16.3,-16.3 z m 193.7,0 h -97.2 c -9,0 -16.3,7.3 -16.3,16.3 0,9 7.3,16.3 16.3,16.3 h 96.6 c 9,0 16.6,-7.3 16.6,-16.3 0,-9 -7,-16.3 -16,-16.3"
         style="fill:#739af0;fill-opacity:1;fill-rule:nonzero;stroke:none"
         id="path210" />
      <path
         d="m 16551.1,5426.4 h -86.9 c -8,0 -14.6,6.5 -14.6,14.5 0,8 6.3,14.4 14.2,14.4 h 87.3 c 8,0 14.4,-6.4 14.4,-14.4 0,-8 -6.4,-14.5 -14.4,-14.5 z m 174.5,0 h -87.2 c -8,0 -14.5,6.5 -14.5,14.5 0,8 6.5,14.4 14.5,14.4 h 87.2 c 8,0 14.5,-6.4 14.5,-14.4 0,-8 -6.5,-14.5 -14.5,-14.5 z m 174.6,0 h -87.3 c -8,0 -14.4,6.5 -14.4,14.5 0,8 6.4,14.4 14.4,14.4 h 87.3 c 8,0 14.4,-6.4 14.4,-14.4 0,-8 -6.4,-14.5 -14.4,-14.5 z m 174.5,0 h -87.3 c -7.9,0 -14.4,6.5 -14.4,14.5 0,8 6.5,14.4 14.4,14.4 h 87.3 c 8,0 14.5,-6.4 14.5,-14.4 0,-8 -6.5,-14.5 -14.5,-14.5 z m 174.5,0 h -87.2 c -8,0 -14.5,6.5 -14.5,14.5 0,8 6.5,14.4 14.5,14.4 h 87.2 c 8,0 14.5,-6.4 14.5,-14.4 0,-8 -6.5,-14.5 -14.5,-14.5 z m 174.6,0 h -87.3 c -8,0 -14.4,6.5 -14.4,14.5 0,8 6.4,14.4 14.4,14.4 h 87.3 c 8,0 14.4,-6.4 14.4,-14.4 0,-8 -6.4,-14.5 -14.4,-14.5 z m 174.5,0 h -87.2 c -8,0 -14.5,6.5 -14.5,14.5 0,8 6.5,14.4 14.5,14.4 h 87.2 c 8,0 14.5,-6.4 14.5,-14.4 0,-8 -6.5,-14.5 -14.5,-14.5 z m 174.6,0 h -87.3 c -8,0 -14.5,6.5 -14.5,14.5 0,8 6.5,14.4 14.5,14.4 h 87.3 c 7.9,0 14.4,-6.4 14.4,-14.4 0,-8 -6.5,-14.5 -14.4,-14.5 z m 174.5,0 h -87.3 c -8,0 -14.4,6.5 -14.4,14.5 0,8 6.4,14.4 14.4,14.4 h 87.3 c 8,0 14.4,-6.4 14.4,-14.4 0,-8 -6.4,-14.5 -14.4,-14.5 z m 174.5,0 h -87.2 c -8,0 -14.5,6.5 -14.5,14.5 0,8 6.5,14.4 14.5,14.4 h 84.6 c 1.1,0 2.2,0 3.3,0 7.9,-0.4 14.1,-7.1 13.8,-15.1 -0.4,-7.8 -6.8,-13.8 -14.5,-13.8 z m -1714.8,-142.2 c -8,0 -14.5,6.5 -14.5,14.5 v 85.1 c 0,0.9 0,1.8 0.1,2.7 0.3,8 6.7,14.2 15,13.9 7.9,-0.4 14.1,-7.1 13.8,-15.1 v -1.5 -85.1 c 0,-8 -6.5,-14.5 -14.4,-14.5 z m 1769.3,-2.3 c -8,0 -14.5,6.4 -14.5,14.4 v 87.3 c 0,8 6.5,14.4 14.5,14.4 8,0 14.4,-6.4 14.4,-14.4 v -87.3 c 0,-8 -6.4,-14.4 -14.4,-14.4 z m -1769.3,-172.2 c -8,0 -14.5,6.4 -14.5,14.4 v 87.3 c 0,8 6.5,14.4 14.5,14.4 7.9,0 14.4,-6.4 14.4,-14.4 v -87.3 c 0,-8 -6.5,-14.4 -14.4,-14.4 z m 1769.3,-2.4 c -8,0 -14.5,6.5 -14.5,14.5 v 87.3 c 0,7.9 6.5,14.4 14.5,14.4 8,0 14.4,-6.5 14.4,-14.4 v -87.3 c 0,-8 -6.4,-14.5 -14.4,-14.5 z m -1769.3,-172.2 c -8,0 -14.5,6.5 -14.5,14.5 v 87.3 c 0,7.9 6.5,14.4 14.5,14.4 7.9,0 14.4,-6.5 14.4,-14.4 v -87.3 c 0,-8 -6.5,-14.5 -14.4,-14.5 z m 1769.3,-2.3 h -0.5 c -8,0.3 -14.2,6.9 -14,14.9 v 1.4 85.4 c 0,8 6.5,14.5 14.5,14.5 8,0 14.4,-6.5 14.4,-14.5 v -87.7 c -0.3,-7.8 -6.7,-14 -14.4,-14 z m -1628,-55.3 h -84.2 c -1.3,0 -2.5,0 -3.7,0.1 -8,0.4 -14.1,7.2 -13.8,15.2 0.4,7.9 6.9,14.2 15.2,13.7 l 2.3,-0.1 h 84.2 c 8,0 14.5,-6.5 14.5,-14.4 0,-8 -6.5,-14.5 -14.5,-14.5 z m 174.6,0 h -87.3 c -8,0 -14.4,6.5 -14.4,14.5 0,7.9 6.4,14.4 14.4,14.4 h 87.3 c 8,0 14.4,-6.5 14.4,-14.4 0,-8 -6.4,-14.5 -14.4,-14.5 z m 174.5,0 h -87.3 c -7.9,0 -14.4,6.5 -14.4,14.5 0,7.9 6.5,14.4 14.4,14.4 h 87.3 c 8,0 14.5,-6.5 14.5,-14.4 0,-8 -6.5,-14.5 -14.5,-14.5 z m 174.6,0 h -87.3 c -8,0 -14.5,6.5 -14.5,14.5 0,7.9 6.5,14.4 14.5,14.4 h 87.3 c 7.9,0 14.4,-6.5 14.4,-14.4 0,-8 -6.5,-14.5 -14.4,-14.5 z m 174.5,0 h -87.3 c -8,0 -14.4,6.5 -14.4,14.5 0,7.9 6.4,14.4 14.4,14.4 h 87.3 c 8,0 14.4,-6.5 14.4,-14.4 0,-8 -6.4,-14.5 -14.4,-14.5 z m 174.5,0 h -87.3 c -7.9,0 -14.4,6.5 -14.4,14.5 0,7.9 6.5,14.4 14.4,14.4 h 87.3 c 8,0 14.5,-6.5 14.5,-14.4 0,-8 -6.5,-14.5 -14.5,-14.5 z m 174.6,0 h -87.3 c -8,0 -14.5,6.5 -14.5,14.5 0,7.9 6.5,14.4 14.5,14.4 h 87.3 c 7.9,0 14.4,-6.5 14.4,-14.4 0,-8 -6.5,-14.5 -14.4,-14.5 z m 174.5,0 h -87.3 c -8,0 -14.4,6.5 -14.4,14.5 0,7.9 6.4,14.4 14.4,14.4 h 87.3 c 8,0 14.4,-6.5 14.4,-14.4 0,-8 -6.4,-14.5 -14.4,-14.5 z m 174.5,0 h -87.2 c -8,0 -14.5,6.5 -14.5,14.5 0,7.9 6.5,14.4 14.5,14.4 h 87.2 c 8,0 14.5,-6.5 14.5,-14.4 0,-8 -6.5,-14.5 -14.5,-14.5 z m 175.2,0 h -87.9 c -8,0 -14.5,6.5 -14.5,14.5 0,7.9 6.5,14.4 14.5,14.4 h 87.3 c 7.9,0 14.7,-6.5 14.7,-14.4 0,-8 -6.1,-14.5 -14.1,-14.5"
         style="fill:#739af0;fill-opacity:1;fill-rule:nonzero;stroke:none"
         id="path212" />
      <path
         d="m 8654.14,7669.5 h -86.22 c -7.98,0 -14.59,6.4 -14.59,14.4 0,8 6.31,14.5 14.29,14.5 h 86.52 c 7.98,0 14.45,-6.5 14.45,-14.5 0,-8 -6.47,-14.4 -14.45,-14.4 z m 173.03,0 h -86.52 c -7.97,0 -14.44,6.4 -14.44,14.4 0,8 6.47,14.5 14.44,14.5 h 86.52 c 7.98,0 14.45,-6.5 14.45,-14.5 0,-8 -6.47,-14.4 -14.45,-14.4 z m 173.03,0 h -86.52 c -7.98,0 -14.45,6.4 -14.45,14.4 0,8 6.47,14.5 14.45,14.5 h 86.52 c 7.97,0 14.44,-6.5 14.44,-14.5 0,-8 -6.47,-14.4 -14.44,-14.4 z m 173.02,0 h -86.51 c -7.98,0 -14.45,6.4 -14.45,14.4 0,8 6.47,14.5 14.45,14.5 h 86.51 c 7.98,0 14.45,-6.5 14.45,-14.5 0,-8 -6.47,-14.4 -14.45,-14.4 z m 173.03,0 h -86.51 c -7.98,0 -14.45,6.4 -14.45,14.4 0,8 6.47,14.5 14.45,14.5 h 86.51 c 7.98,0 14.45,-6.5 14.45,-14.5 0,-8 -6.47,-14.4 -14.45,-14.4 z m 173.03,0 h -86.51 c -7.98,0 -14.45,6.4 -14.45,14.4 0,8 6.47,14.5 14.45,14.5 h 86.51 c 7.98,0 14.45,-6.5 14.45,-14.5 0,-8 -6.47,-14.4 -14.45,-14.4 z m 173.03,0 h -86.51 c -7.98,0 -14.45,6.4 -14.45,14.4 0,8 6.47,14.5 14.45,14.5 h 86.51 c 7.98,0 14.45,-6.5 14.45,-14.5 0,-8 -6.47,-14.4 -14.45,-14.4 z m 173.03,0 h -86.52 c -7.98,0 -14.44,6.4 -14.44,14.4 0,8 6.46,14.5 14.44,14.5 h 86.52 c 7.98,0 14.45,-6.5 14.45,-14.5 0,-8 -6.47,-14.4 -14.45,-14.4 z m 173.06,0 h -86.55 c -7.98,0 -14.45,6.4 -14.45,14.4 0,8 6.47,14.5 14.45,14.5 h 86.55 c 7.9,0 14.4,-6.5 14.4,-14.5 0,-8 -6.5,-14.4 -14.4,-14.4 z m 173,0 h -86.5 c -8,0 -14.5,6.4 -14.5,14.4 0,8 6.5,14.5 14.5,14.5 h 86.5 c 8,0 14.4,-6.5 14.4,-14.5 0,-8 -6.4,-14.4 -14.4,-14.4 z m 173,0 h -86.5 c -8,0 -14.4,6.4 -14.4,14.4 0,8 6.4,14.5 14.4,14.5 h 86.5 c 8,0 14.5,-6.5 14.5,-14.5 0,-8 -6.5,-14.4 -14.5,-14.4 z m 173.1,0 h -86.6 c -7.9,0 -14.4,6.4 -14.4,14.4 0,8 6.5,14.5 14.4,14.5 h 86.6 c 7.9,0 14.4,-6.5 14.4,-14.5 0,-8 -6.5,-14.4 -14.4,-14.4 z m 173,0 h -86.5 c -8,0 -14.5,6.4 -14.5,14.4 0,8 6.5,14.5 14.5,14.5 h 86.5 c 8,0 14.4,-6.5 14.4,-14.5 0,-8 -6.4,-14.4 -14.4,-14.4 z m 173,0 h -86.5 c -8,0 -14.5,6.4 -14.5,14.4 0,8 6.5,14.5 14.5,14.5 h 86.5 c 8,0 14.5,-6.5 14.5,-14.5 0,-8 -6.5,-14.4 -14.5,-14.4 z m 173,0 h -86.5 c -8,0 -14.4,6.4 -14.4,14.4 0,8 6.4,14.5 14.4,14.5 h 86.5 c 8,0 14.5,-6.5 14.5,-14.5 0,-8 -6.5,-14.4 -14.5,-14.4 z m 173,-1 -1.6,0.1 c -5.1,0.6 -10.3,0.9 -15.5,0.9 h -69.4 c -7.9,0 -14.4,6.4 -14.4,14.4 0,8 6.5,14.5 14.4,14.5 h 69.4 c 6.3,0 12.6,-0.4 18.8,-1.1 7.9,-0.9 13.6,-8.1 12.7,-16 -0.9,-7.4 -7.1,-12.8 -14.4,-12.8 z m -2817.64,-89.6 c -1.86,0 -3.75,0.3 -5.57,1.1 -7.36,3.1 -10.84,11.5 -7.76,18.9 12.31,29.4 32.89,54.4 59.52,72.2 6.63,4.5 15.59,2.7 20.04,-4 4.43,-6.6 2.65,-15.6 -3.99,-20 -21.88,-14.6 -38.79,-35.1 -48.91,-59.4 -2.31,-5.5 -7.69,-8.8 -13.33,-8.8 z M 11374.1,7563 c -6.3,0 -12.1,4.1 -13.9,10.4 -7.3,25.2 -21.7,47.5 -41.8,64.6 -6.1,5.1 -6.9,14.2 -1.7,20.3 5.2,6.1 14.3,6.8 20.4,1.7 24.4,-20.8 42,-47.9 50.9,-78.6 2.2,-7.6 -2.3,-15.6 -9.9,-17.9 -1.4,-0.3 -2.7,-0.5 -4,-0.5 z M 8420.52,7407.4 c -7.98,0 -14.45,6.4 -14.45,14.4 v 86.5 c 0,8 6.47,14.5 14.45,14.5 7.98,0 14.45,-6.5 14.45,-14.5 v -86.5 c 0,-8 -6.47,-14.4 -14.45,-14.4 z m 2959.28,-16.9 c -8,0 -14.4,6.5 -14.4,14.4 v 86.5 c 0,8 6.4,14.5 14.4,14.5 8,0 14.5,-6.5 14.5,-14.5 v -86.5 c 0,-7.9 -6.5,-14.4 -14.5,-14.4 z M 8420.52,7234.3 c -7.98,0 -14.45,6.5 -14.45,14.5 v 86.5 c 0,8 6.47,14.4 14.45,14.4 7.98,0 14.45,-6.4 14.45,-14.4 v -86.5 c 0,-8 -6.47,-14.5 -14.45,-14.5 z m 2959.28,-16.8 c -8,0 -14.4,6.4 -14.4,14.4 v 86.5 c 0,8 6.4,14.5 14.4,14.5 8,0 14.5,-6.5 14.5,-14.5 v -86.5 c 0,-8 -6.5,-14.4 -14.5,-14.4 z M 8420.52,7061.3 c -7.98,0 -14.45,6.5 -14.45,14.4 v 86.5 c 0,8 6.47,14.5 14.45,14.5 7.98,0 14.45,-6.5 14.45,-14.5 v -86.5 c 0,-7.9 -6.47,-14.4 -14.45,-14.4 z m 2959.28,-16.9 c -8,0 -14.4,6.5 -14.4,14.5 v 86.5 c 0,8 6.4,14.4 14.4,14.4 8,0 14.5,-6.4 14.5,-14.4 v -86.5 c 0,-8 -6.5,-14.5 -14.5,-14.5 z M 8420.52,6888.3 c -7.98,0 -14.45,6.4 -14.45,14.4 v 86.5 c 0,8 6.47,14.5 14.45,14.5 7.98,0 14.45,-6.5 14.45,-14.5 v -86.5 c 0,-8 -6.47,-14.4 -14.45,-14.4 z m 2959.28,-16.9 c -8,0 -14.4,6.5 -14.4,14.4 v 86.6 c 0,7.9 6.4,14.4 14.4,14.4 8,0 14.5,-6.5 14.5,-14.4 v -86.6 c 0,-7.9 -6.5,-14.4 -14.5,-14.4 z M 8420.52,6715.2 c -7.98,0 -14.45,6.5 -14.45,14.5 v 86.5 c 0,8 6.47,14.4 14.45,14.4 7.98,0 14.45,-6.4 14.45,-14.4 v -86.5 c 0,-8 -6.47,-14.5 -14.45,-14.5 z m 2959.28,-16.8 c -8,0 -14.4,6.4 -14.4,14.4 v 86.5 c 0,8 6.4,14.5 14.4,14.5 8,0 14.5,-6.5 14.5,-14.5 v -86.5 c 0,-8 -6.5,-14.4 -14.5,-14.4 z M 8420.52,6542.2 c -7.98,0 -14.45,6.5 -14.45,14.5 v 86.5 c 0,7.9 6.47,14.4 14.45,14.4 7.98,0 14.45,-6.5 14.45,-14.4 v -86.5 c 0,-8 -6.47,-14.5 -14.45,-14.5 z m 2959.28,-16.8 c -8,0 -14.4,6.4 -14.4,14.4 v 86.5 c 0,8 6.4,14.5 14.4,14.5 8,0 14.5,-6.5 14.5,-14.5 v -86.5 c 0,-8 -6.5,-14.4 -14.5,-14.4 z M 8420.52,6369.2 c -7.98,0 -14.45,6.4 -14.45,14.4 v 86.5 c 0,8 6.47,14.5 14.45,14.5 7.98,0 14.45,-6.5 14.45,-14.5 v -86.5 c 0,-8 -6.47,-14.4 -14.45,-14.4 z m 2959.28,-16.9 c -8,0 -14.4,6.5 -14.4,14.5 v 86.5 c 0,8 6.4,14.4 14.4,14.4 8,0 14.5,-6.4 14.5,-14.4 v -86.5 c 0,-8 -6.5,-14.5 -14.5,-14.5 z M 8420.52,6196.2 c -7.98,0 -14.45,6.4 -14.45,14.4 v 86.5 c 0,8 6.47,14.5 14.45,14.5 7.98,0 14.45,-6.5 14.45,-14.5 v -86.5 c 0,-8 -6.47,-14.4 -14.45,-14.4 z m 2959.28,-16.9 c -8,0 -14.4,6.5 -14.4,14.4 v 86.6 c 0,7.9 6.4,14.4 14.4,14.4 8,0 14.5,-6.5 14.5,-14.4 v -86.6 c 0,-7.9 -6.5,-14.4 -14.5,-14.4 z M 8420.52,6023.1 c -7.98,0 -14.45,6.5 -14.45,14.5 v 86.5 c 0,8 6.47,14.4 14.45,14.4 7.98,0 14.45,-6.4 14.45,-14.4 v -86.5 c 0,-8 -6.47,-14.5 -14.45,-14.5 z m 2959.28,-16.8 c -8,0 -14.4,6.4 -14.4,14.4 v 86.5 c 0,8 6.4,14.5 14.4,14.5 8,0 14.5,-6.5 14.5,-14.5 v -86.5 c 0,-8 -6.5,-14.4 -14.5,-14.4 z M 8420.52,5850.1 c -7.98,0 -14.45,6.5 -14.45,14.4 v 86.6 c 0,7.9 6.47,14.4 14.45,14.4 7.98,0 14.45,-6.5 14.45,-14.4 v -86.6 c 0,-7.9 -6.47,-14.4 -14.45,-14.4 z m 2959.28,-16.9 c -8,0 -14.4,6.5 -14.4,14.5 v 86.5 c 0,8 6.4,14.4 14.4,14.4 8,0 14.5,-6.4 14.5,-14.4 v -86.5 c 0,-8 -6.5,-14.5 -14.5,-14.5 z M 8420.52,5677.1 c -7.98,0 -14.45,6.4 -14.45,14.4 v 86.5 c 0,8 6.47,14.5 14.45,14.5 7.98,0 14.45,-6.5 14.45,-14.5 v -86.5 c 0,-8 -6.47,-14.4 -14.45,-14.4 z m 2959.28,-16.9 c -8,0 -14.4,6.5 -14.4,14.4 v 86.6 c 0,7.9 6.4,14.4 14.4,14.4 8,0 14.5,-6.5 14.5,-14.4 v -86.6 c 0,-7.9 -6.5,-14.4 -14.5,-14.4 z M 8472.39,5519.4 c -3.32,0 -6.64,1.2 -9.36,3.5 -24.42,20.8 -41.96,48 -50.74,78.7 -2.19,7.6 2.25,15.6 9.92,17.8 7.68,2.2 15.67,-2.2 17.86,-9.9 7.21,-25.2 21.62,-47.5 41.69,-64.6 6.08,-5.2 6.8,-14.3 1.63,-20.4 -2.86,-3.3 -6.92,-5.1 -11,-5.1 z m 2842.11,-10.2 c -4.6,0 -9.2,2.3 -12,6.4 -4.4,6.7 -2.7,15.6 4,20.1 21.8,14.7 38.7,35.2 48.7,59.5 3.1,7.3 11.6,10.8 18.9,7.8 7.4,-3.1 10.9,-11.5 7.8,-18.9 -12.2,-29.5 -32.8,-54.5 -59.3,-72.4 -2.5,-1.7 -5.3,-2.5 -8.1,-2.5 z m -2677.52,-24.9 h -69.06 c -6.4,0 -12.83,0.4 -19.1,1.1 -7.92,0.9 -13.59,8.1 -12.65,16 0.93,8 8.14,13.7 16.04,12.7 5.15,-0.6 10.44,-0.9 15.71,-0.9 h 69.06 c 7.98,0 14.45,-6.5 14.45,-14.5 0,-7.9 -6.47,-14.4 -14.45,-14.4 z m 173.03,0 h -86.51 c -7.98,0 -14.45,6.5 -14.45,14.4 0,8 6.47,14.5 14.45,14.5 h 86.51 c 7.98,0 14.45,-6.5 14.45,-14.5 0,-7.9 -6.47,-14.4 -14.45,-14.4 z m 173.03,0 h -86.51 c -7.98,0 -14.45,6.5 -14.45,14.4 0,8 6.47,14.5 14.45,14.5 h 86.51 c 7.98,0 14.45,-6.5 14.45,-14.5 0,-7.9 -6.47,-14.4 -14.45,-14.4 z m 173.03,0 h -86.51 c -7.98,0 -14.45,6.5 -14.45,14.4 0,8 6.47,14.5 14.45,14.5 h 86.51 c 7.98,0 14.45,-6.5 14.45,-14.5 0,-7.9 -6.47,-14.4 -14.45,-14.4 z m 173.03,0 h -86.52 c -7.98,0 -14.45,6.5 -14.45,14.4 0,8 6.47,14.5 14.45,14.5 h 86.52 c 7.98,0 14.44,-6.5 14.44,-14.5 0,-7.9 -6.46,-14.4 -14.44,-14.4 z m 173.02,0 h -86.51 c -7.98,0 -14.45,6.5 -14.45,14.4 0,8 6.47,14.5 14.45,14.5 h 86.51 c 7.98,0 14.45,-6.5 14.45,-14.5 0,-7.9 -6.47,-14.4 -14.45,-14.4 z m 173.03,0 h -86.51 c -7.98,0 -14.45,6.5 -14.45,14.4 0,8 6.47,14.5 14.45,14.5 h 86.51 c 7.98,0 14.45,-6.5 14.45,-14.5 0,-7.9 -6.47,-14.4 -14.45,-14.4 z m 173.03,0 h -86.51 c -7.98,0 -14.45,6.5 -14.45,14.4 0,8 6.47,14.5 14.45,14.5 h 86.51 c 7.98,0 14.45,-6.5 14.45,-14.5 0,-7.9 -6.47,-14.4 -14.45,-14.4 z m 173.02,0 h -86.5 c -7.98,0 -14.45,6.5 -14.45,14.4 0,8 6.47,14.5 14.45,14.5 h 86.5 c 8,0 14.5,-6.5 14.5,-14.5 0,-7.9 -6.5,-14.4 -14.5,-14.4 z m 173,0 h -86.5 c -8,0 -14.4,6.5 -14.4,14.4 0,8 6.4,14.5 14.4,14.5 h 86.5 c 8,0 14.5,-6.5 14.5,-14.5 0,-7.9 -6.5,-14.4 -14.5,-14.4 z m 173.1,0 h -86.5 c -8,0 -14.5,6.5 -14.5,14.4 0,8 6.5,14.5 14.5,14.5 h 86.5 c 7.9,0 14.4,-6.5 14.4,-14.5 0,-7.9 -6.5,-14.4 -14.4,-14.4 z m 173,0 h -86.5 c -8,0 -14.5,6.5 -14.5,14.4 0,8 6.5,14.5 14.5,14.5 h 86.5 c 8,0 14.4,-6.5 14.4,-14.5 0,-7.9 -6.4,-14.4 -14.4,-14.4 z m 173,0 h -86.5 c -8,0 -14.4,6.5 -14.4,14.4 0,8 6.4,14.5 14.4,14.5 h 86.5 c 8,0 14.5,-6.5 14.5,-14.5 0,-7.9 -6.5,-14.4 -14.5,-14.4 z m 173.1,0 h -86.6 c -7.9,0 -14.4,6.5 -14.4,14.4 0,8 6.5,14.5 14.4,14.5 h 86.6 c 7.9,0 14.4,-6.5 14.4,-14.5 0,-7.9 -6.5,-14.4 -14.4,-14.4 z m 173,0 h -86.5 c -8,0 -14.5,6.5 -14.5,14.4 0,8 6.5,14.5 14.5,14.5 h 86.5 c 8,0 14.4,-6.5 14.4,-14.5 0,-7.9 -6.4,-14.4 -14.4,-14.4 z m 173.6,0 h -87.1 c -8,0 -14.5,6.5 -14.5,14.4 0,8 6.5,14.5 14.5,14.5 h 86.5 c 8,0 14.8,-6.5 14.8,-14.5 0,-7.9 -6.2,-14.4 -14.2,-14.4"
         style="fill:#739af0;fill-opacity:1;fill-rule:nonzero;stroke:none"
         id="path214" />
      <path
         d="M 12073.9,8136.1 H 8577.26 c -75.47,0 -136.64,61.1 -136.64,136.6 v 1911.9 c 0,75.5 61.17,136.7 136.64,136.7 h 3496.64 c 75.5,0 136.7,-61.2 136.7,-136.7 V 8272.7 c 0,-75.5 -61.2,-136.6 -136.7,-136.6"
         style="fill:#d4e1ff;fill-opacity:1;fill-rule:nonzero;stroke:none"
         id="path216" />
      <path
         d="m 9900.17,9662.1 v -866.9 c 0,-54.2 60.25,-86.7 105.53,-56.9 l 658.8,433.5 c 40.9,26.9 40.9,86.9 0,113.8 l -658.8,433.4 c -45.28,29.8 -105.53,-2.7 -105.53,-56.9"
         style="fill:#f99746;fill-opacity:1;fill-rule:nonzero;stroke:none"
         id="path218" />
      <path
         d="m 8636.59,8333.2 c 0,37.4 30.29,67.7 67.66,67.7 37.36,0 67.65,-30.3 67.65,-67.7 0,-37.4 -30.29,-67.7 -67.65,-67.7 -37.37,0 -67.66,30.3 -67.66,67.7"
         style="fill:#aec3ff;fill-opacity:1;fill-rule:nonzero;stroke:none"
         id="path220" />
      <path
         d="M 11782.7,8315 H 8722.46 c -10.06,0 -18.21,8.1 -18.21,18.2 0,10.1 8.15,18.2 18.21,18.2 h 3060.24 c 10,0 18.2,-8.1 18.2,-18.2 0,-10.1 -8.2,-18.2 -18.2,-18.2"
         style="fill:#aec3ff;fill-opacity:1;fill-rule:nonzero;stroke:none"
         id="path222" />
      <path
         d="m 11966.2,4772.5 h 1950.4 v 2911.4 h -1950.4 z"
         style="fill:#cddbfc;fill-opacity:1;fill-rule:nonzero;stroke:none"
         id="path224" />
      <path
         d="m 13128.6,6748.5 h -26.7 v 120 c 0,43 35,78 78.1,78 h 330 c 23.3,0 43.7,15.8 49.6,38.3 l 52.2,198.4 c 4.1,15.5 0.8,31.7 -9,44.4 -9.8,12.8 -24.6,20 -40.6,20 h -430.6 v 26.7 h 430.6 c 24.3,0 46.9,-11 61.8,-30.4 14.8,-19.3 19.8,-43.9 13.6,-67.5 l -52.2,-198.4 c -9,-34.2 -40,-58.2 -75.4,-58.2 h -330 c -28.3,0 -51.4,-23 -51.4,-51.3 v -120"
         style="fill:#2b478b;fill-opacity:1;fill-rule:nonzero;stroke:none"
         id="path226" />
      <path
         d="m 13438.8,7148.4 h -567 c -47.9,0 -86.7,38.8 -86.7,86.7 v 51.8 c 0,47.8 38.8,86.6 86.7,86.6 h 567 c 47.9,0 86.7,-38.8 86.7,-86.6 v -51.8 c 0,-47.9 -38.8,-86.7 -86.7,-86.7"
         style="fill:#f99746;fill-opacity:1;fill-rule:nonzero;stroke:none"
         id="path228" />
      <path
         d="m 13115.3,6250.5 v 0 c -40.5,0 -73.4,32.8 -73.4,73.4 v 444.6 c 0,40.5 32.9,73.4 73.4,73.4 40.5,0 73.4,-32.9 73.4,-73.4 v -444.6 c 0,-40.6 -32.9,-73.4 -73.4,-73.4"
         style="fill:#2b478b;fill-opacity:1;fill-rule:nonzero;stroke:none"
         id="path230" />
      <path
         d="m 15923,5286.3 c 0,0 50.5,-155.5 46.2,-191 -4.4,-35.6 -36.1,-157.1 -58.7,-188.2 -22.6,-31.1 -33.8,126.7 -51.7,150.4 -17.9,23.8 -3.7,-59.4 -16.3,-67.1 -12.7,-7.7 -39,61.2 -50.3,85.5 -11.4,24.3 27.7,113.8 27.8,176.2 0.1,62.5 103,34.2 103,34.2"
         style="fill:#ffb27d;fill-opacity:1;fill-rule:nonzero;stroke:none"
         id="path232" />
      <path
         d="m 14735.9,6521.2 c -14,178.2 179.6,300.4 332.5,207.7 3.2,-1.9 6.3,-3.8 9.3,-5.8 229,-147.3 722.9,-834.8 756.9,-903.7 33.9,-68.9 134.3,-616.8 134.3,-616.8 0,0 -124,-45.4 -182,1.7 0,0 -201.1,519.6 -230.8,545.6 -29.7,26 -804.3,460.6 -810.9,623.5 -1.7,43.1 -5.2,94.9 -9.3,147.8"
         style="fill:#233862;fill-opacity:1;fill-rule:nonzero;stroke:none"
         id="path234" />
      <path
         d="m 16118,2497 c 0,0 92.3,-84.2 74.3,-144.1 -18,-59.8 -101.3,-99.7 -112.5,-172.9 -11.3,-73.1 -56.3,-113 -96.8,-113 -40.5,0 -193.2,0 -193.2,0 0,0 -29.8,51.5 42.2,67 72,15.5 99.2,101.5 94.7,181.3 -4.5,79.8 6.8,186.1 6.8,186.1 l 153,35.5 31.5,-39.9"
         style="fill:#2a4a7c;fill-opacity:1;fill-rule:nonzero;stroke:none"
         id="path236" />
      <path
         d="m 14985.8,2279.2 c 0,0 16.5,-191.7 -24,-211.7 l -518.6,1.1 c 0,0 0,59.8 83.3,73.1 83.3,13.3 229.6,62.1 254.4,170.7 24.8,108.6 204.9,-33.2 204.9,-33.2"
         style="fill:#2a4a7c;fill-opacity:1;fill-rule:nonzero;stroke:none"
         id="path238" />
      <path
         d="m 14547.9,4986.9 c 0,0 27.4,-336 59.6,-739.9 43.6,-548.7 96.2,-1222.6 101.4,-1350.3 9,-221.7 45,-576.3 45,-576.3 0,0 85.5,-84.2 256.6,-48.7 0,0 152.5,506.2 196.1,1041.8 0.7,8.8 1.3,17.7 2,26.5 40.5,545.3 103.5,1693.4 103.5,1693.4 l -764.2,-46.5"
         style="fill:#f99746;fill-opacity:1;fill-rule:nonzero;stroke:none"
         id="path240" />
      <path
         d="m 14547.9,4986.9 c 0,0 27.4,-336 59.6,-739.9 l 599.1,-933.5 c 0.7,8.8 1.3,17.7 2,26.5 40.5,545.3 103.5,1693.4 103.5,1693.4 l -764.2,-46.5"
         style="fill:#ef7e29;fill-opacity:1;fill-rule:nonzero;stroke:none"
         id="path242" />
      <path
         d="m 14672.9,4947 c 0,0 492.9,-1216.9 817.1,-1788.7 324.2,-571.9 425.4,-731.5 425.4,-731.5 0,0 185.8,73.2 202.6,123 0,0 -123.9,1104 -341,1373.2 -122.7,152 -266.7,608.4 -273.5,768 -6.8,159.6 -43.9,475.4 -43.9,475.4 L 14672.9,4947"
         style="fill:#f99746;fill-opacity:1;fill-rule:nonzero;stroke:none"
         id="path244" />
      <path
         d="m 15097.9,6772.4 c 0,0 -330.3,-167.6 -523.7,-111.7 0,0 46.1,60.7 128.1,106.7 -7.4,38.5 -13.3,71.9 -16.8,100.2 -9.4,65.4 -10.2,102.5 -10.2,102.5 l 126.7,103.8 120.1,99.2 c -4.2,-272.5 175.8,-400.7 175.8,-400.7"
         style="fill:#ffb27d;fill-opacity:1;fill-rule:nonzero;stroke:none"
         id="path246" />
      <path
         d="m 15426,5070.1 c -133.3,-80.7 -259.6,-141.4 -407.3,-175.5 -174.3,-41.3 -388.5,-29.1 -460.2,-40 -7.4,-1 -14.3,0.9 -20.9,5.3 -5.6,2.9 -37.2,215.5 -68.9,483.8 -1.4,10.8 -2.9,21.7 -3.5,32.6 l -0.5,3.6 c -12.3,104.9 -23.1,215.1 -32.4,325.5 -7.7,86 -14,170.9 -18.3,250.8 -5.5,99.9 -7.8,191.6 -5.5,267.1 1,34.5 3,65.5 6.1,92.4 18.9,156.8 93.6,268.7 164,352.1 l 58.4,66.5 c 67.7,-4.3 136.8,8.5 202.1,51.5 71.3,47 148.3,97.5 162.8,89.1 109.3,-59.9 198.3,-214.8 261.9,-419.5 36.4,-117.8 64.4,-251.5 82.3,-393.1 5.8,-44 10.7,-89 14.4,-133.9 0.8,-8.3 1.4,-16.6 2,-24.8 8.6,-122.7 22.6,-237.7 38.1,-340.4 20.9,-138.5 44.7,-254.5 61.5,-336.2 8.5,-41.6 14.9,-73.7 18.7,-96.8 3.4,-20.1 -36.8,-48.9 -54.8,-60.1"
         style="fill:#2b478b;fill-opacity:1;fill-rule:nonzero;stroke:none"
         id="path248" />
      <path
         d="m 14926.3,7069.1 c 0,0 -81.2,-155.3 -240.8,-201.5 -9.4,65.4 -10.2,102.5 -10.2,102.5 l 126.7,103.8 124.3,-4.8"
         style="fill:#ed985f;fill-opacity:1;fill-rule:nonzero;stroke:none"
         id="path250" />
      <path
         d="m 14616.6,6973.4 c 0,0 319.1,-45.7 345.1,150.4 26,196.2 84.7,322.4 -118,359.9 -202.7,37.5 -252.3,-32.3 -277.1,-95.7 -24.9,-63.4 -32.4,-397.6 50,-414.6"
         style="fill:#ffb27d;fill-opacity:1;fill-rule:nonzero;stroke:none"
         id="path252" />
      <path
         d="m 15069.7,7511.6 c 2.8,3.4 9.4,6.2 24.2,7.3 0,0 -12,7.2 -27.8,7.3 -3.5,20.5 -15.2,56.8 -50.9,64.9 0,0 19.3,-9.7 22.2,-31.6 -41.9,41.4 -130.6,70.3 -374,46.3 -320.8,-31.8 -210.8,-235.4 -168.8,-259.1 42.1,-23.7 145.5,45.6 223.1,41 77.7,-4.6 94.6,-116.3 121.2,-131.2 26.6,-14.8 15.7,12.2 51,28.9 35.3,16.8 39.8,-42.1 30.3,-80.6 -9.5,-38.5 40.4,-88.1 40.4,-88.1 0,0 0,0 48.3,54.2 48.4,54.1 90.4,280.4 67,328 -2,4.2 -4.1,8.5 -6.2,12.7"
         style="fill:#2c3a64;fill-opacity:1;fill-rule:nonzero;stroke:none"
         id="path254" />
      <path
         d="m 14968.4,6205.8 c 0,0 -269.2,-204.7 -554.4,-249.6 -5.5,99.9 -7.8,191.6 -5.5,267.1 l 559.9,-17.5"
         style="fill:#233862;fill-opacity:1;fill-rule:nonzero;stroke:none"
         id="path256" />
      <path
         d="m 13315.7,6470 c -4.3,4.6 -59.1,188 -154,174.7 -61.9,-8.8 -163.1,-44.6 -136.3,-126.2 10.6,-32.1 199.3,-142.5 199.3,-142.5 l 91,94"
         style="fill:#ffb27d;fill-opacity:1;fill-rule:nonzero;stroke:none"
         id="path258" />
      <path
         d="m 15001.6,6601.5 c 153.5,-91.8 141,-320.5 -23.1,-391.5 -3.3,-1.4 -6.7,-2.9 -10.1,-4.2 -252.7,-101.4 -1099.2,-106.1 -1175,-93.9 -75.9,12.2 -580.7,247.5 -580.7,247.5 0,0 34.8,127.4 106.7,147.4 0,0 540.1,-136.8 578.5,-127.6 38.4,9.2 841.2,389.1 977.8,300.2 36.2,-23.6 80.4,-50.7 125.9,-77.9"
         style="fill:#2b478b;fill-opacity:1;fill-rule:nonzero;stroke:none"
         id="path260" />
      <path
         d="m 20696.4,12624.1 h -673.8 c -28.4,0 -51.5,23.1 -51.5,51.5 0,28.3 23.1,51.5 51.5,51.5 h 673.8 c 28.4,0 51.5,-23.2 51.5,-51.5 0,-28.4 -23.1,-51.5 -51.5,-51.5"
         style="fill:#ebf3fa;fill-opacity:1;fill-rule:nonzero;stroke:none"
         id="path262" />
      <path
         d="m 20696.4,12422.9 h -673.8 c -28.4,0 -51.5,23.1 -51.5,51.5 0,28.3 23.1,51.5 51.5,51.5 h 673.8 c 28.4,0 51.5,-23.2 51.5,-51.5 0,-28.4 -23.1,-51.5 -51.5,-51.5"
         style="fill:#ebf3fa;fill-opacity:1;fill-rule:nonzero;stroke:none"
         id="path264" />
      <path
         d="m 20696.4,12216.5 h -673.8 c -28.4,0 -51.5,23.1 -51.5,51.4 0,28.4 23.1,51.5 51.5,51.5 h 673.8 c 28.4,0 51.5,-23.1 51.5,-51.5 0,-28.3 -23.1,-51.4 -51.5,-51.4"
         style="fill:#ebf3fa;fill-opacity:1;fill-rule:nonzero;stroke:none"
         id="path266" />
      <path
         d="m 18057.6,7357.7 h -1604.3 c -37.5,0 -68.2,30.7 -68.2,68.3 0,37.5 30.7,68.3 68.2,68.3 h 1604.3 c 37.6,0 68.3,-30.8 68.3,-68.3 0,-37.6 -30.7,-68.3 -68.3,-68.3"
         style="fill:#ebf3fa;fill-opacity:1;fill-rule:nonzero;stroke:none"
         id="path268" />
      <path
         d="M 10215.7,12044.8 H 8611.46 c -37.56,0 -68.29,30.7 -68.29,68.3 0,37.5 30.73,68.2 68.29,68.2 h 1604.24 c 37.6,0 68.3,-30.7 68.3,-68.2 0,-37.6 -30.7,-68.3 -68.3,-68.3"
         style="fill:#ebf3fa;fill-opacity:1;fill-rule:nonzero;stroke:none"
         id="path270" />
      <path
         d="m 18057.6,6680.2 h -1604.3 c -37.5,0 -68.2,30.8 -68.2,68.3 0,37.6 30.7,68.3 68.2,68.3 h 1604.3 c 37.6,0 68.3,-30.7 68.3,-68.3 0,-37.5 -30.7,-68.3 -68.3,-68.3"
         style="fill:#ebf3fa;fill-opacity:1;fill-rule:nonzero;stroke:none"
         id="path272" />
      <path
         d="m 18057.6,7019 h -1918.7 c -37.6,0 -68.3,30.7 -68.3,68.2 0,37.6 30.7,68.3 68.3,68.3 h 1918.7 c 37.6,0 68.3,-30.7 68.3,-68.3 0,-37.5 -30.7,-68.2 -68.3,-68.2"
         style="fill:#ebf3fa;fill-opacity:1;fill-rule:nonzero;stroke:none"
         id="path274" />
      <path
         d="m 9739.51,11615.4 h -905.18 c -28.6,0 -52,23.4 -52,52 v 32.5 c 0,28.6 23.4,52 52,52 h 905.18 c 28.6,0 51.99,-23.4 51.99,-52 v -32.5 c 0,-28.6 -23.39,-52 -51.99,-52"
         style="fill:#ebf3fa;fill-opacity:1;fill-rule:nonzero;stroke:none"
         id="path276" />
      <path
         d="m 8482.56,11683.7 c 0,37.7 30.58,68.2 68.29,68.2 37.71,0 68.29,-30.5 68.29,-68.2 0,-37.8 -30.58,-68.3 -68.29,-68.3 -37.71,0 -68.29,30.5 -68.29,68.3"
         style="fill:#ebf3fa;fill-opacity:1;fill-rule:nonzero;stroke:none"
         id="path278" />
      <path
         d="M 9911.33,11343.6 H 8838.68 c -30.99,0 -56.35,25.4 -56.35,56.3 v 23.9 c 0,31 25.36,56.4 56.35,56.4 h 1072.65 c 30.99,0 56.36,-25.4 56.36,-56.4 v -23.9 c 0,-30.9 -25.37,-56.3 -56.36,-56.3"
         style="fill:#ebf3fa;fill-opacity:1;fill-rule:nonzero;stroke:none"
         id="path280" />
      <path
         d="m 8482.56,11411.9 c 0,37.7 30.58,68.3 68.29,68.3 37.71,0 68.29,-30.6 68.29,-68.3 0,-37.7 -30.58,-68.3 -68.29,-68.3 -37.71,0 -68.29,30.6 -68.29,68.3"
         style="fill:#ebf3fa;fill-opacity:1;fill-rule:nonzero;stroke:none"
         id="path282" />
      <path
         d="m 9739.51,11048.6 h -905.18 c -28.6,0 -52,23.4 -52,52 v 32.6 c 0,28.6 23.4,52 52,52 h 905.18 c 28.6,0 51.99,-23.4 51.99,-52 v -32.6 c 0,-28.6 -23.39,-52 -51.99,-52"
         style="fill:#ebf3fa;fill-opacity:1;fill-rule:nonzero;stroke:none"
         id="path284" />
      <path
         d="m 8482.56,11116.9 c 0,37.7 30.58,68.3 68.29,68.3 37.71,0 68.29,-30.6 68.29,-68.3 0,-37.7 -30.58,-68.3 -68.29,-68.3 -37.71,0 -68.29,30.6 -68.29,68.3"
         style="fill:#ebf3fa;fill-opacity:1;fill-rule:nonzero;stroke:none"
         id="path286" />
      <path
         d="m 11212.2,11845 c -79.4,-77.5 -80.9,-205.2 -3.3,-284.6 37.6,-38.4 87.8,-59.9 141.6,-60.5 53.7,-0.7 104.5,19.7 143,57.2 79.3,77.6 80.8,205.3 3.3,284.6 -77.6,79.4 -205.3,80.9 -284.6,3.3 z m 173.9,-382.6 c -11.8,-1.6 -23.9,-2.4 -36.1,-2.2 -64.3,0.7 -124.5,26.5 -169.5,72.5 -92.8,95 -91.1,247.9 4,340.7 v 0 c 95,92.9 247.8,91.1 340.6,-3.9 92.9,-95.1 91.1,-247.9 -3.9,-340.7 -37.3,-36.5 -84.3,-59.4 -135.1,-66.4"
         style="fill:#739af0;fill-opacity:1;fill-rule:nonzero;stroke:none"
         id="path288" />
      <path
         d="m 10973.4,11302.6 -27.7,28.4 235.1,229.8 27.8,-28.4 -235.2,-229.8"
         style="fill:#739af0;fill-opacity:1;fill-rule:nonzero;stroke:none"
         id="path290" />
      <path
         d="m 10877.8,11236.9 v 0 c -13.7,14 -13.4,36.5 0.6,50.2 l 138.5,135.3 c 14,13.6 36.4,13.4 50.1,-0.6 13.7,-14 13.4,-36.4 -0.6,-50.1 l -138.5,-135.3 c -14,-13.7 -36.4,-13.5 -50.1,0.5"
         style="fill:#739af0;fill-opacity:1;fill-rule:nonzero;stroke:none"
         id="path292" />
      <path
         d="m 20155.8,2062.5 v 0 c -30.7,-0.2 -63,22 -72,49.6 l -1851.1,5636.1 c -9.1,27.6 8.5,50.1 39.2,50.3 30.7,0.1 63,-22.1 72.1,-49.7 l 1851,-5636 c 9.1,-27.6 -8.5,-50.1 -39.2,-50.3"
         style="fill:#2a4e96;fill-opacity:1;fill-rule:nonzero;stroke:none"
         id="path294" />
      <path
         d="m 21647.6,2071.1 v 0 c -30.7,-0.1 -62.9,22.1 -72,49.6 l -1851.1,5636.1 c -9,27.6 8.5,50.1 39.3,50.3 30.7,0.2 62.9,-22 72,-49.6 l 1851.1,-5636.1 c 9,-27.6 -8.5,-50.1 -39.3,-50.3"
         style="fill:#2a4e96;fill-opacity:1;fill-rule:nonzero;stroke:none"
         id="path296" />
      <path
         d="m 20041.3,6971.5 -1498.1,-8.7 c -28.8,-0.1 -59.4,20.9 -68,46.9 -8.5,25.9 8.2,47.2 37.1,47.4 l 1498.1,8.7 c 28.8,0.1 59.4,-20.9 68,-46.9 8.5,-25.9 -8.2,-47.2 -37.1,-47.4"
         style="fill:#2a4e96;fill-opacity:1;fill-rule:nonzero;stroke:none"
         id="path298" />
      <path
         d="m 20364.5,5987.5 -1498.1,-8.7 c -28.9,-0.2 -59.4,20.9 -68,46.8 -8.5,25.9 8.2,47.3 37.1,47.5 l 1498.1,8.6 c 28.8,0.2 59.4,-20.9 68,-46.8 8.5,-25.9 -8.2,-47.3 -37.1,-47.4"
         style="fill:#2a4e96;fill-opacity:1;fill-rule:nonzero;stroke:none"
         id="path300" />
      <path
         d="m 20675.8,5039.7 -1498.1,-8.7 c -28.9,-0.1 -59.5,20.9 -68,46.9 -8.5,25.9 8.2,47.2 37,47.4 l 1498.1,8.7 c 28.9,0.2 59.5,-20.9 68,-46.9 8.5,-25.9 -8.1,-47.2 -37,-47.4"
         style="fill:#2a4e96;fill-opacity:1;fill-rule:nonzero;stroke:none"
         id="path302" />
      <path
         d="m 21026.2,3972.7 -1498.1,-8.6 c -28.9,-0.2 -59.5,20.9 -68,46.8 -8.5,25.9 8.2,47.3 37.1,47.5 l 1498,8.6 c 28.9,0.2 59.5,-20.9 68,-46.8 8.6,-25.9 -8.1,-47.3 -37,-47.5"
         style="fill:#2a4e96;fill-opacity:1;fill-rule:nonzero;stroke:none"
         id="path304" />
      <path
         d="m 21393,2856 -1498.1,-8.7 c -28.9,-0.1 -59.5,20.9 -68,46.9 -8.5,25.9 8.2,47.2 37,47.4 l 1498.1,8.7 c 28.9,0.1 59.5,-20.9 68,-46.9 8.5,-25.9 -8.1,-47.2 -37,-47.4"
         style="fill:#2a4e96;fill-opacity:1;fill-rule:nonzero;stroke:none"
         id="path306" />
      <path
         d="m 18168.1,10329.6 v 0 c -11.8,-2.3 -23.2,5.4 -25.5,17.2 l -24,123.8 c -2.3,11.8 5.5,23.2 17.2,25.5 11.8,2.3 23.2,-5.5 25.5,-17.2 l 24,-123.9 c 2.2,-11.7 -5.5,-23.2 -17.2,-25.4"
         style="fill:#2a4e96;fill-opacity:1;fill-rule:nonzero;stroke:none"
         id="path308" />
      <path
         d="m 18137.4,10527.4 -14.7,-2.8 -34.7,179 14.7,2.8 34.7,-179"
         style="fill:#2a4e96;fill-opacity:1;fill-rule:nonzero;stroke:none"
         id="path310" />
      <path
         d="m 18102.8,11713.9 c 0,0 -14.2,123.2 -44,170.4 -29.9,47.1 -142.9,77.4 -150,70.4 -22.1,-21.4 65.3,-97.1 68.7,-125 3.5,-27.9 -44.3,-8.6 -21.4,-63 19.4,-46 83.3,-105.5 83.3,-105.5 l 63.4,52.7"
         style="fill:#ffb27d;fill-opacity:1;fill-rule:nonzero;stroke:none"
         id="path312" />
      <path
         d="m 18048.3,11727.6 c 41.2,32.3 50,31.7 50,31.7 0,0 380.9,-330 418,-359.4 37.1,-29.4 609.2,-195.3 609.2,-195.3 l 90.9,-465.1 c 0,0 -774.2,373.9 -866.7,450.2 -152.8,126.1 -345.7,479 -345.7,479 0,0 12,33.5 44.3,58.9"
         style="fill:#e58638;fill-opacity:1;fill-rule:nonzero;stroke:none"
         id="path314" />
      <path
         d="m 19137.8,7257.7 c 0,0 -6.6,-158.9 -37.1,-197.6 l -424.6,-2.4 c 2.9,16.4 4.7,54.3 63.4,64.5 74.2,12.9 161.4,64.7 206.3,162.8 47.3,103.1 192,-27.3 192,-27.3"
         style="fill:#163560;fill-opacity:1;fill-rule:nonzero;stroke:none"
         id="path316" />
      <path
         d="m 19971.1,7280.6 c 0,0 29.6,-211.1 -10.6,-214.8 -5.4,-0.5 -171.1,-3.2 -242.9,-4.4 -84.4,-1.4 -223.1,1.6 -223.1,1.6 -17.5,-0.7 -28.9,18.2 -20,33.2 9.7,16.5 28.3,34.1 63.8,40.9 73.9,14.2 197.1,68.6 240.3,167.4 45.5,103.9 192.5,-23.9 192.5,-23.9"
         style="fill:#163560;fill-opacity:1;fill-rule:nonzero;stroke:none"
         id="path318" />
      <path
         d="m 18917,9444.7 c 0,0 118.1,-413.2 456.4,-1130.6 338.4,-717.5 353.1,-1063.2 353.1,-1063.2 0,0 51.2,-18.1 119.2,-10.9 73.5,7.8 125.4,40.6 125.4,40.6 0,0 -22,854 -181.8,1216.1 -159.8,362 -192.4,1352.8 -192.4,1352.8 L 18917,9444.7"
         style="fill:#233862;fill-opacity:1;fill-rule:nonzero;stroke:none"
         id="path320" />
      <path
         d="m 18727.4,9800.1 c 0,0 -9.4,-639.7 101.3,-1425.2 110.7,-785.5 59,-1150.8 59,-1150.8 0,0 29.3,-21.3 119.5,-21 105.7,0.5 159.8,44.1 159.8,44.1 0,0 158.4,785.8 113,1178.9 -45.4,393.2 216.9,1349.1 216.9,1349.1 l -769.5,24.9"
         style="fill:#2a4e96;fill-opacity:1;fill-rule:nonzero;stroke:none"
         id="path322" />
      <path
         d="m 19250.5,11297.2 -125,-92.6 -180.7,38 c 2.5,16.5 14.4,84.8 25.3,146.7 0.6,3.6 1.3,7.3 1.9,10.8 9.3,52.7 17.4,97.9 17.4,97.9 l 168.7,84.1 63,31.4 c -0.2,-1.1 -4.9,-58.4 -5.6,-66.8 -11.8,-148.6 35,-249.5 35,-249.5"
         style="fill:#ffb27d;fill-opacity:1;fill-rule:nonzero;stroke:none"
         id="path324" />
      <path
         d="m 19608.7,9721.1 c -40.9,-187 -915.9,-104.9 -904.5,9.3 0.4,3.8 2.7,56.6 5.9,127.8 6.6,154 16.7,394.7 18,413.5 l 0.1,1 c 15.8,158.9 30.9,314.4 31.9,415.9 0.9,88.1 13,178.1 29.1,259.8 14.9,75.5 33.2,144 49.1,197.3 11.1,37.7 32,70.7 59.6,96.7 19.7,18.5 42.8,33.4 68.2,43.5 6.9,2.9 14,5.3 21.2,7.4 102.9,29.9 245.5,66.8 284,55.5 104.6,-30.7 182.4,-214.9 237.4,-449.6 102.9,-439.3 126.7,-1056.2 100,-1178.1"
         style="fill:#f99746;fill-opacity:1;fill-rule:nonzero;stroke:none"
         id="path326" />
      <path
         d="m 19202.9,11544.1 c -37.1,-70.9 -175.2,-132.3 -232.8,-154.8 0.6,3.6 1.3,7.3 1.9,10.8 9.3,52.7 17.4,97.9 17.4,97.9 l 168.7,84.1 c 37.3,0.6 60,-8.8 44.8,-38"
         style="fill:#fca56b;fill-opacity:1;fill-rule:nonzero;stroke:none"
         id="path328" />
      <path
         d="m 18907.3,11507.9 c 0,0 304.5,-95 360.8,95.5 56.2,190.5 133.4,306.6 -58.7,375.3 -192,68.7 -251.4,7.2 -285.6,-51.8 -34.3,-59 -94.2,-389.4 -16.5,-419"
         style="fill:#ffb27d;fill-opacity:1;fill-rule:nonzero;stroke:none"
         id="path330" />
      <path
         d="m 18935.7,11945.2 c 0,0 19.4,-221.7 65.3,-212.1 45.8,9.7 87.4,16.8 80.7,-50 -6.7,-66.9 -70.3,-144 71,-155.9 141.3,-11.8 344.5,352.6 305.7,421.6 -112.1,199.1 -684.6,239.3 -522.7,-3.6"
         style="fill:#163560;fill-opacity:1;fill-rule:nonzero;stroke:none"
         id="path332" />
      <path
         d="m 18710.1,9858.2 c 6.6,154 16.7,394.7 18,413.5 l 0.1,1 516.9,309.1 c 0,0 20,-721.5 -535,-723.6"
         style="fill:#e58638;fill-opacity:1;fill-rule:nonzero;stroke:none"
         id="path334" />
      <path
         d="m 18299.2,10504.9 c 0,0 -105,71.1 -125,77.3 -19.9,6.2 -85.2,12.9 -88.3,7.8 -3,-5.2 -11.9,-20.9 -0.5,-26.3 11.4,-5.3 25.6,-3.4 21.3,-7.2 -4.2,-3.7 -47.2,16.7 -57.1,-5.2 -9.9,-21.9 -18.6,-96.9 31.8,-119.6 50.4,-22.8 174.8,-2.2 183.7,-4.8 76.1,-22.1 34.1,78 34.1,78"
         style="fill:#ffb27d;fill-opacity:1;fill-rule:nonzero;stroke:none"
         id="path336" />
      <path
         d="m 18298.2,10524.2 c 0,0 512.7,-87.2 558.2,-65.1 72.5,35.3 -28.2,555.5 -28.2,555.5 0,0 -4.3,117.9 133.4,145.7 119.7,24.2 235.2,-65.4 235.2,-65.4 0,0 105,-94 91.6,-198.2 -29.8,-231 -76,-700.9 -230.6,-772.9 -199.2,-92.9 -775.9,257.6 -775.9,257.6 0,0 -19.2,23.5 -16.5,67.2 2.4,38.5 32.8,75.6 32.8,75.6"
         style="fill:#f99746;fill-opacity:1;fill-rule:nonzero;stroke:none"
         id="path338" />
      <path
         d="m 17953.7,11772.9 c 0,0 -32.8,65.2 -38.1,77.5 -5.2,12.2 7.6,9.6 20.2,2.7 12.6,-6.8 29.9,-44.7 49.3,-40.1 15.5,3.6 -31.4,-40.1 -31.4,-40.1"
         style="fill:#ffb27d;fill-opacity:1;fill-rule:nonzero;stroke:none"
         id="path340" />
    </g>
  </g>
</svg>
